<?xml version="1.0" encoding="UTF-8" standalone="no"?>
<svg
   xmlns:svg="http://www.w3.org/2000/svg"
   xmlns="http://www.w3.org/2000/svg"
   width="1100.0"
   height="360.0"

>
    <g transform="scale(1.2217194559079463, -1.2217194559079463)   translate(145.70370395185182,-126.87037048518518)" stroke-width="0.4"  fill="none">
       <!-- hidden lines -->
       <g  stroke="rgb(160,160,160)" fill="none" stroke-dasharray="0.4,0.4" >

       </g>

       <!-- solid lines -->
       <g  stroke="rgb(0,0,0)" fill="none">
			<path d="M18.0,22.118643154587932 L18.46484374999995,22.367030587954837 L18.929687499999915,22.61075554525421 L19.394531249999893,22.849931057375098 L19.859374999999876,23.084670155206553 L20.324218749999872,23.3150858696376 L20.78906249999987,23.5412912315573 L21.25390624999988,23.763399271854695 L21.71874999999989,23.981523021418823 L22.183593749999904,24.195775511138738 L22.648437499999922,24.406269771903474 L23.113281249999943,24.613118834602083 L23.578124999999968,24.81643573012362 L24.04296874999999,25.01633348935711 L24.50781250000001,25.212925143191605 L24.972656250000036,25.406323722516156 L25.437500000000064,25.596642258219806 L25.902343750000078,25.78399378119159 L26.367187500000096,25.96849132232057 L26.83203125000011,26.150247687462134 L27.296875000000124,26.329349324129907 L27.761718750000135,26.505831949782397 L28.226562500000142,26.679725517250805 L28.69140625000015,26.851059979366326 L29.15625000000015,27.019865288960155 L29.621093750000153,27.18617139886349 L30.085937500000153,27.350008261907544 L30.550781250000156,27.511405830923497 L31.015625000000156,27.67039405874256 L31.480468750000156,27.82700289819592 L31.94531250000016,27.98126230211479 L32.410156250000156,28.133202223330354 L32.875000000000156,28.282852614673818 L33.33984375000016,28.430243428976386 L33.80468750000016,28.575404619069243 L34.269531250000156,28.718366137783594 L34.734375000000156,28.859157937950638 L35.19921875000016,28.997809972401576 L35.66406250000017,29.134352118712272 L36.59375000000018,29.401217894041103 L37.523437500000185,29.659969031574054 L38.45312500000019,29.91081737115218 L39.3828125000002,30.153974752616545 L40.31250000000021,30.389653015808218 L41.24218750000023,30.618064000568236 L42.17187500000023,30.839419546737666 L43.10156250000023,31.053931494157567 L44.03125000000024,31.261811682669 L44.960937500000234,31.46325489925745 L45.89062500000024,31.658357854501883 L46.820312500000256,31.84718226560127 L47.750000000000256,32.02978980645484 L48.67968750000027,32.20624215096187 L49.60937500000028,32.37660097302158 L50.539062500000284,32.54092794653323 L51.46875000000029,32.699284745396064 L52.398437500000306,32.851733043509334 L53.32812500000032,32.99833536122028 L54.257812500000334,33.13917309661803 L55.187500000000334,33.27434620315841 L56.11718750000035,33.403955416264154 L57.04687500000034,33.52810147135799 L57.97656250000034,33.646885103862665 L58.90625000000036,33.76040704920092 L59.83593750000037,33.86876804279548 L60.76562500000038,33.97206882006908 L61.69531250000037,34.070410058899895 L62.62500000000038,34.16385727157884 L63.5546875000004,34.25238110730924 L64.48437500000043,34.335936379242426 L65.41406250000044,34.41447790052975 L66.34375000000047,34.48796048432252 L67.27343750000048,34.55633894377209 L68.20312500000048,34.619568092029795 L69.1328125000005,34.67760274224697 L70.0625000000005,34.730397707574944 L70.99218750000053,34.777926747363786 L71.92187500000051,34.820323185445865 L72.85156250000051,34.85780029550762 L73.78125000000051,34.89057194882219 L74.7109375000005,34.91885201666273 L75.64062500000051,34.9428543703024 L76.57031250000051,34.96279288101432 L77.5000000000005,34.97888142007166 L78.4296875000005,34.99133385874755 L79.35937500000051,35.00036645976627 L80.28906250000051,35.006296287200975 L81.21875000000053,35.009576070885444 L83.07812500000057,35.01003465741986 L84.93750000000061,35.00544052020191 L86.79687500000064,34.99949196006398 L88.6562500000007,34.99577829658058 L90.51562500000074,34.9954583159745 L92.37500000000074,34.99730177734521 L96.09375000000074,35.00215534545446 L99.81250000000071,35.00178742248141 L103.53125000000074,34.998643093937396 L107.25000000000084,34.99842638454994 L122.1250000000007,34.99739390303645 L136.99999999999986,34.988616302837734 " />
			<path d="M140.0,34.99999999999999 L140.0,34.99777942988367 L140.0,34.991118001229644 L140.0,34.98001655920831 L140.0,34.96447651239721 L140.0,34.94449983260069 L140.0,34.9200890545982 L140.0,34.89124727582132 L140.0,34.857978155959486 L140.0,34.82028591649444 L140.0,34.778175340163585 L140.0,34.73165177035209 L140.0,34.68072111041407 L140.0,34.625389822922706 L140.0,34.56566492884951 L140.0,34.501554006672805 L140.0,34.433065191415515 L140.0,34.36020717361242 L140.0,34.28298919820695 L140.0,34.20142106337769 L140.0,34.11551311929474 L140.0,34.02527626680608 L140.0,33.93072195605407 L140.0,33.83186218502234 L140.0,33.728709498013096 L140.0,33.62127698405529 L140.0,33.50957827524355 L140.0,33.39362754500829 L140.0,33.27343950631719 L140.0,33.14902940980813 L140.0,33.02041304185403 L140.0,32.88760672255965 L140.0,32.75062730369073 L140.0,32.60949216653562 L140.0,32.46421921969981 L140.0,32.31482689683349 L140.0,32.161334154292526 L140.0,32.003760468733134 L140.0,31.84212583464048 L140.0,31.676450761791664 L140.0,31.50675627265325 L140.0,31.333063899713768 L140.0,31.15539568275153 L140.0,30.973774166038027 L140.0,30.788222395477366 L140.0,30.598763915682014 L140.0,30.40542276698527 L140.0,30.208223482390874 L140.0,30.007191084460036 L140.0,29.80235108213639 L140.0,29.593729467509228 L140.0,29.381352712515394 L140.0,29.16524776558034 L140.0,28.945442048198657 L140.0,28.721963451454638 L140.0,28.494840332483207 L140.0,28.264101510871722 L140.0,28.02977626500312 L140.0,27.791894328340803 L140.0,27.55048588565579 L140.0,27.305581569196637 L140.0,27.057212454802507 L140.0,26.805410057960007 L140.0,26.55020632980421 L140.0,26.29163365306442 L140.0,26.0297248379551 L140.0,25.76451311801266 L140.0,25.49603214587845 L140.0,25.224315989028582 L140.0,24.94939912545116 L140.0,24.671316439271322 L140.0,24.390103216324867 L140.0,24.10579513968082 L140.0,23.81842828511359 L140.0,23.528039116525377 L140.0,23.23466448131923 L140.0,22.938341605723494 L140.0,22.639108090068195 L140.0,22.337001904013924 L140.0,22.03206138173386 L140.0,21.72432521704956 L140.0,21.413832458521103 L140.0,21.100622504492218 L140.0,20.784735098091012 L140.0,20.466210322186964 L140.0,20.14508859430485 L140.0,19.821410661496103 L140.0,19.495217595168462 L140.0,19.1665507858744 L140.0,18.835451938059062 L140.0,18.501963064768415 L140.0,18.16612648231819 L140.0,17.82798480492439 L140.0,17.487580939295924 L140.0,17.144958079190232 L140.0,16.800159699932365 L140.0,16.453229552898446 L140.0,16.10421165996406 L140.0,15.753150307918304 L140.0,15.045075664466353 L140.0,14.329365000765879 L140.0,13.606381570646768 L140.0,12.876492319178354 L140.0,12.140067696428844 L140.0,11.397481469445871 L140.0,10.649110532553529 L140.0,9.895334716062251 L140.0,9.136536593488618 L140.0,8.373101287382795 L140.0,7.605416273862392 L140.0,6.833871185951768 L140.0,6.058857615826572 L140.0,5.280768916064073 L140.0,4.500000000000057 " />
			<path d="M140.0,-4.49999999999998 L140.0,-5.2807689157041935 L140.0,-6.058857615050464 L140.0,-6.833871184708158 L140.0,-7.605416272105799 L140.0,-8.373101285074334 L140.0,-9.136536590596883 L140.0,-9.895334712563972 L140.0,-10.649110528434363 L140.0,-11.39748146470118 L140.0,-12.140067691064324 L140.0,-12.876492313210619 L140.0,-13.606381564103827 L140.0,-14.329364993687562 L140.0,-15.045075656904466 L140.0,-15.753150299936728 L140.0,-16.10421165180034 L140.0,-16.45322954457297 L140.0,-16.80015969146696 L140.0,-17.144958070608148 L140.0,-17.48758093062171 L140.0,-17.827984796183884 L140.0,-18.166126473538462 L140.0,-18.501963055977683 L140.0,-18.8354519292866 L140.0,-19.16655077715047 L140.0,-19.495217586524177 L140.0,-19.821410652963365 L140.0,-20.145088585916163 L140.0,-20.46621031397536 L140.0,-20.78473509008988 L140.0,-21.1006224967352 L140.0,-21.413832451041863 L140.0,-21.724325209881655 L140.0,-22.032061374910583 L140.0,-22.337001897568115 L140.0,-22.639108084032024 L140.0,-22.93834160012826 L140.0,-23.234664476195206 L140.0,-23.528039111901563 L140.0,-23.818428281017496 L140.0,-24.105795136138262 L140.0,-24.390103213359787 L140.0,-24.671316436905478 L140.0,-24.949399123703998 L140.0,-25.22431598791698 L140.0,-25.49603214541647 L140.0,-25.76451311821142 L140.0,-26.029724838822503 L140.0,-26.291633654604958 L140.0,-26.550206332018846 L140.0,-26.805410060845936 L140.0,-27.057212458353042 L140.0,-27.305581573401 L140.0,-27.55048589049907 L140.0,-27.791894333803803 L140.0,-28.029776271062275 L140.0,-28.26410151749907 L140.0,-28.494840339646338 L140.0,-28.721963459116694 L140.0,-28.945442056318356 L140.0,-29.165247774112082 L140.0,-29.381352721409264 L140.0,-29.593729476711268 L140.0,-29.802351091588683 L140.0,-30.007191094100968 L140.0,-30.20822349215532 L140.0,-30.405422776805032 L140.0,-30.598763925486047 L140.0,-30.788222405192236 L140.0,-30.97377417558838 L140.0,-31.155395692060544 L140.0,-31.33306390870373 L140.0,-31.506756281246076 L140.0,-31.676450769909614 L140.0,-31.842125842206777 L140.0,-32.00376047567274 L140.0,-32.16133416053285 L140.0,-32.314826902305164 L140.0,-32.46421922433762 L140.0,-32.60949217027919 L140.0,-32.75062730648553 L140.0,-32.8876067243578 L140.0,-33.020413042615196 L140.0,-33.14902940950038 L140.0,-33.27343950491785 L140.0,-33.39362754250477 L140.0,-33.509578271634076 L140.0,-33.62127697934961 L140.0,-33.72870949223316 L140.0,-33.831862178202734 L140.0,-33.93072194824244 L140.0,-34.02527625806338 L140.0,-34.115513109695236 L140.0,-34.20142105300885 L140.0,-34.282989187169086 L140.0,-34.36020716201798 L140.0,-34.43306517938802 L140.0,-34.50155399434559 L140.0,-34.56566491636398 L140.0,-34.62538981042605 L140.0,-34.68072109805657 L140.0,-34.73165175828378 L140.0,-34.7781753285304 L140.0,-34.8202859054335 L140.0,-34.8579781455937 L140.0,-34.89124726625311 L140.0,-34.92008904590224 L140.0,-34.94449982481574 L140.0,-34.96447650551665 L140.0,-34.98001655316951 L140.0,-34.991117995901995 L140.0,-34.99777942505511 L140.0,-34.99999999536201 " />
			<path d="M18.0,22.118643154587932 L18.0,-22.118643151656872 " />
			<path d="M140.0,4.500000000000003 L140.0,4.387175604818208 L140.0,4.054359905560888 L140.0,3.518241671106135 L140.0,2.8057041083643015 L140.0,1.952476826029012 L140.0,1.0013442028034147 L140.0,1.3774181587224782e-15 L140.0,-1.001344202803413 L140.0,-1.9524768260290104 L140.0,-2.8057041083642997 L140.0,-3.5182416711061326 L140.0,-4.054359905560884 L140.0,-4.3871756048182045 L140.0,-4.499999999999995 " />
			<path d="M140.0,36.54293994002422 L140.0,36.53457422865265 L140.0,36.509508199038734 L140.0,36.467835049035344 L140.0,36.40970972332909 L140.0,36.33534833734141 L140.0,36.24502737369113 L140.0,36.13908265420613 L140.0,36.01790809130619 L140.0,35.88195422339968 L140.0,35.73172653973938 L140.0,35.56778360096595 L140.0,35.39073496232705 L140.0,35.20123890729359 L140.0,35.000000000000014 " />
			<path d="M140.0,-35.0 L140.0,-35.201238907293586 L140.0,-35.39073496232705 L140.0,-35.56778360096595 L140.0,-35.73172653973938 L140.0,-35.88195422339969 L140.0,-36.0179080913062 L140.0,-36.139082654206135 L140.0,-36.24502737369114 L140.0,-36.335348337341415 L140.0,-36.409709723329094 L140.0,-36.46783504903535 L140.0,-36.50950819903874 L140.0,-36.53457422865266 L140.0,-36.542939940024226 " />
			<path d="M133.0,4.500000000000003 L133.0,4.387175604818209 L133.0,4.054359905560889 L133.0,3.518241671106136 L133.0,2.8057041083643033 L133.0,1.9524768260290137 L133.0,1.0013442028034172 L133.0,1.1553735537974469e-15 L133.0,-1.0013442028034136 L133.0,-1.9524768260290102 L133.0,-2.8057041083643 L133.0,-3.5182416711061326 L133.0,-4.054359905560884 L133.0,-4.3871756048182045 L133.0,-4.499999999999995 " />
			<path d="M133.0,-34.998016564052975 L133.0,-35.19949840468706 L133.0,-35.389227792346304 L133.0,-35.566498329309454 L133.0,-35.73065000446857 L133.0,-35.881071650672915 L133.0,-36.01720322021762 L133.0,-36.13853787000523 L133.0,-36.24462384861667 L133.0,-36.33506617826557 L133.0,-36.409528125373875 L133.0,-36.467732454293454 L133.0,-36.509462459505876 L133.0,-36.53456277245726 L133.0,-36.542939940024226 " />
			<path d="M133.0,36.54293994002422 L133.0,36.534562766291245 L133.0,36.50946243488776 L133.0,36.46773239907462 L133.0,36.409528027633996 L133.0,36.33506602640215 L133.0,36.24462363143278 L133.0,36.138537576794995 L133.0,36.01720284084894 L133.0,35.881071175667 L133.0,35.730649425075754 L133.0,35.56649763758094 L133.0,35.38922698120142 L133.0,35.19949746797551 L133.0,34.99801549661195 " />
			<path d="M137.0,35.0 L137.0,34.814540504591136 L137.0,34.260127459760945 L137.0,33.34263636056901 L137.0,32.071790489089494 L137.0,30.46105787012624 L137.0,28.527508541322195 L137.0,26.291633650269816 L137.0,23.77712829577436 L137.0,21.010640414649977 L137.0,18.021488375267417 L137.0,14.841350270708066 L137.0,11.50392820429775 L137.0,8.04459112531664 L137.0,4.500000000000078 " />
			<path d="M137.0,-4.499999999999997 L137.0,-8.044591125316636 L137.0,-11.503928204297747 L137.0,-14.841350270708062 L137.0,-18.021488375267417 L137.0,-21.010640414649984 L137.0,-23.777128295774368 L137.0,-26.291633650269823 L137.0,-28.527508541322202 L137.0,-30.46105787012625 L137.0,-32.0717904890895 L137.0,-33.34263636056902 L137.0,-34.26012745976095 L137.0,-34.814540504591136 L137.0,-34.99999999999999 " />
			<path d="M140.0,35.0 L140.0,34.814540504591136 L140.0,34.260127459760945 L140.0,33.34263636056901 L140.0,32.071790489089494 L140.0,30.46105787012624 L140.0,28.527508541322195 L140.0,26.291633650269816 L140.0,23.77712829577436 L140.0,21.010640414649977 L140.0,18.021488375267417 L140.0,14.841350270708066 L140.0,11.50392820429775 L140.0,8.04459112531664 L140.0,4.500000000000078 " />
			<path d="M140.0,-4.499999999999997 L140.0,-8.044591125316636 L140.0,-11.503928204297747 L140.0,-14.841350270708062 L140.0,-18.021488375267417 L140.0,-21.010640414649984 L140.0,-23.777128295774368 L140.0,-26.291633650269823 L140.0,-28.527508541322202 L140.0,-30.46105787012625 L140.0,-32.0717904890895 L140.0,-33.34263636056902 L140.0,-34.26012745976095 L140.0,-34.814540504591136 L140.0,-34.99999999999999 " />
			<path d="M137.0,35.0 L140.0,35.0 " />
			<path d="M140.0,4.500000000000003 L140.0,4.387175604818209 L140.0,4.054359905560889 L140.0,3.518241671106136 L140.0,2.8057041083643033 L140.0,1.952476826029014 L140.0,1.0013442028034172 L140.0,2.541142108230758e-15 L140.0,-1.0013442028034123 L140.0,-1.952476826029009 L140.0,-2.8057041083642984 L140.0,-3.5182416711061313 L140.0,-4.054359905560883 L140.0,-4.387175604818204 L140.0,-4.499999999999996 " />
			<path d="M140.0,4.500000000000003 L144.0,4.500000000000003 " />
			<path d="M144.0,4.500000000000003 L144.0,4.387175604818209 L144.0,4.054359905560889 L144.0,3.518241671106136 L144.0,2.8057041083643033 L144.0,1.952476826029014 L144.0,1.0013442028034172 L144.0,2.541142108230758e-15 L144.0,-1.0013442028034123 L144.0,-1.952476826029009 L144.0,-2.8057041083642984 L144.0,-3.5182416711061313 L144.0,-4.054359905560883 L144.0,-4.387175604818204 L144.0,-4.499999999999996 " />
			<path d="M140.0,36.54293994002422 L140.0,36.53457422865265 L140.0,36.509508199038734 L140.0,36.467835049035344 L140.0,36.40970972332909 L140.0,36.33534833734141 L140.0,36.24502737369113 L140.0,36.13908265420612 L140.0,36.01790809130619 L140.0,35.88195422339968 L140.0,35.73172653973938 L140.0,35.56778360096595 L140.0,35.39073496232705 L140.0,35.201238907293586 L140.0,35.00000000000001 " />
			<path d="M140.0,36.54293994002422 L144.0,36.54293994002422 " />
			<path d="M144.0,36.54293994002422 L144.0,36.53423535434923 L144.0,36.50815527279616 L144.0,36.46480059150025 L144.0,36.40433903692273 L144.0,36.32700451696664 L144.0,36.233096216056246 L144.0,36.122977437680824 L144.0,35.99707419888073 L144.0,35.85587358211325 L144.0,35.699921850874375 L144.0,35.52982233636667 L144.0,35.34623310338893 L144.0,35.14986440447781 L144.0,34.941475932150446 " />
			<path d="M140.0,-35.0 L140.0,-35.201238907293586 L140.0,-35.39073496232705 L140.0,-35.56778360096595 L140.0,-35.73172653973938 L140.0,-35.88195422339969 L140.0,-36.0179080913062 L140.0,-36.139082654206135 L140.0,-36.24502737369114 L140.0,-36.335348337341415 L140.0,-36.409709723329094 L140.0,-36.46783504903535 L140.0,-36.50950819903874 L140.0,-36.53457422865266 L140.0,-36.542939940024226 " />
			<path d="M140.0,-27.542939940024226 L142.5,-27.542939940024226 " />
			<path d="M144.0,-34.94147593215044 L144.0,-35.14986440447781 L144.0,-35.34623310338893 L144.0,-35.52982233636667 L144.0,-35.699921850874375 L144.0,-35.85587358211325 L144.0,-35.99707419888073 L144.0,-36.12297743768083 L144.0,-36.23309621605625 L144.0,-36.327004516966646 L144.0,-36.404339036922735 L144.0,-36.46480059150026 L144.0,-36.50815527279617 L144.0,-36.534235354349235 L144.0,-36.542939940024226 " />
			<path d="M171.77772085586295,38.5 L187.5,38.5 " />
			<path d="M171.77772085586295,38.5 L171.33032903491775,38.5 L170.6591404118322,38.5 L169.7878835900724,38.5 L168.74736020561608,38.5 L167.57435599340832,38.5 L166.31034029732385,38.5 L165.0,38.5 L163.68965970267615,38.5 L162.42564400659168,38.5 L161.25263979438392,38.5 L160.2121164099276,38.5 L159.3408595881678,38.5 L158.66967096508225,38.5 L158.22227914413705,38.5 " />
			<path d="M142.5,38.5 L158.22227914413705,38.5 " />
			<path d="M140.75,38.5 L140.76100363268682,38.5 L140.79387615368182,38.5 L140.84820417196036,38.5 L140.92330448117076,38.5 L141.0182326513505,38.5 L141.13179490568095,38.5 L141.26256313292353,38.5 L141.40889284674722,38.5 L141.56894386609815,38.5 L141.74070345654428,38.5 L141.92201164157845,38.5 L142.11058836557646,38.5 L142.30406216681922,38.5 L142.49999999999997,38.5 " />
			<path d="M166.24899959967968,108.5 L168.342099954639,108.5 " />
			<path d="M176.00902578492065,84.9036285913985 L168.342099954639,108.5 " />
			<path d="M187.5,88.63727244278225 L176.00902578492062,84.9036285913985 " />
			<path d="M187.5,38.5 L187.5,88.63727244278225 " />
			<path d="M171.77772085586298,54.5 L171.77772085586298,38.5 " />
			<path d="M166.24899959967968,108.5 L166.24899959967968,54.5 " />
			<path d="M158.22227914413702,54.5 L158.22227914413702,38.5 " />
			<path d="M171.77772085586298,54.5 L171.33032903491778,54.5 L170.65914041183223,54.5 L169.78788359007243,54.5 L168.7473602056161,54.5 L167.57435599340835,54.5 L166.31034029732388,54.5 L165.0,54.5 L163.68965970267612,54.5 L162.42564400659165,54.5 L161.2526397943839,54.5 L160.21211640992757,54.5 L159.34085958816777,54.5 L158.66967096508222,54.5 L158.22227914413702,54.5 " />
			<path d="M142.5,38.5 L142.5,108.5 " />
			<path d="M142.5,108.5 L163.75100040032032,108.5 " />
			<path d="M163.75100040032032,108.5 L163.75100040032032,54.5 " />
			<path d="M140.75,108.5 L140.76100363268682,108.5 L140.79387615368182,108.5 L140.84820417196036,108.5 L140.92330448117076,108.5 L141.0182326513505,108.5 L141.13179490568095,108.5 L141.26256313292353,108.5 L141.40889284674722,108.5 L141.56894386609815,108.5 L141.74070345654428,108.5 L141.92201164157845,108.5 L142.11058836557646,108.5 L142.30406216681922,108.5 L142.49999999999997,108.5 " />
			<path d="M171.77772085586295,-38.5 L187.5,-38.5 " />
			<path d="M171.77772085586295,-38.5 L171.33032903491775,-38.5 L170.6591404118322,-38.5 L169.7878835900724,-38.5 L168.74736020561608,-38.5 L167.57435599340832,-38.5 L166.31034029732385,-38.5 L165.0,-38.5 L163.68965970267615,-38.5 L162.42564400659168,-38.5 L161.25263979438392,-38.5 L160.2121164099276,-38.5 L159.3408595881678,-38.5 L158.66967096508225,-38.5 L158.22227914413705,-38.5 " />
			<path d="M142.5,-38.5 L158.22227914413705,-38.5 " />
			<path d="M140.75,-38.5 L140.76100363268682,-38.5 L140.79387615368182,-38.5 L140.84820417196036,-38.5 L140.92330448117076,-38.5 L141.0182326513505,-38.5 L141.13179490568095,-38.5 L141.26256313292353,-38.5 L141.40889284674722,-38.5 L141.56894386609815,-38.5 L141.74070345654428,-38.5 L141.92201164157845,-38.5 L142.11058836557646,-38.5 L142.30406216681922,-38.5 L142.49999999999997,-38.5 " />
			<path d="M166.24899959967968,-108.5 L168.342099954639,-108.5 " />
			<path d="M176.00902578492065,-84.9036285913985 L168.342099954639,-108.5 " />
			<path d="M187.5,-88.63727244278225 L176.00902578492062,-84.9036285913985 " />
			<path d="M187.5,-38.5 L187.5,-88.63727244278225 " />
			<path d="M171.77772085586298,-54.5 L171.77772085586298,-38.5 " />
			<path d="M166.24899959967968,-108.5 L166.24899959967968,-54.5 " />
			<path d="M158.22227914413702,-54.5 L158.22227914413702,-38.5 " />
			<path d="M171.77772085586298,-54.5 L171.33032903491778,-54.5 L170.65914041183223,-54.5 L169.78788359007243,-54.5 L168.7473602056161,-54.5 L167.57435599340835,-54.5 L166.31034029732388,-54.5 L165.0,-54.5 L163.68965970267612,-54.5 L162.42564400659165,-54.5 L161.2526397943839,-54.5 L160.21211640992757,-54.5 L159.34085958816777,-54.5 L158.66967096508222,-54.5 L158.22227914413702,-54.5 " />
			<path d="M142.5,-38.5 L142.5,-108.5 " />
			<path d="M142.5,-108.5 L163.75100040032032,-108.5 " />
			<path d="M163.75100040032032,-108.5 L163.75100040032032,-54.5 " />
			<path d="M140.75,-108.5 L140.76100363268682,-108.5 L140.79387615368182,-108.5 L140.84820417196036,-108.5 L140.92330448117076,-108.5 L141.0182326513505,-108.5 L141.13179490568095,-108.5 L141.26256313292353,-108.5 L141.40889284674722,-108.5 L141.56894386609815,-108.5 L141.74070345654428,-108.5 L141.92201164157845,-108.5 L142.11058836557646,-108.5 L142.30406216681922,-108.5 L142.49999999999997,-108.5 " />
			<path d="M165.0,-110.5 L165.22392895220662,-110.5 L165.44504186791264,-110.5 L165.66055812391033,-110.5 L165.86776747823512,-110.5 L166.06406415303067,-110.5 L166.24697960371748,-110.5 L166.4142135623731,-110.5 L166.56366296493607,-110.5 L166.69344839845658,-110.5 L166.80193773580484,-110.5 L166.88776666061673,-110.5 L166.94985582436365,-110.5 L166.9874244197865,-110.5 L167.0,-110.5 " />
			<path d="M163.0,-110.5 L163.0125755802135,-110.5 L163.05014417563635,-110.5 L163.11223333938327,-110.5 L163.19806226419516,-110.5 L163.30655160154342,-110.5 L163.43633703506393,-110.5 L163.5857864376269,-110.5 L163.75302039628252,-110.5 L163.93593584696933,-110.5 L164.13223252176488,-110.5 L164.33944187608967,-110.5 L164.55495813208736,-110.5 L164.77607104779338,-110.5 L164.99999999999997,-110.5 " />
			<path d="M165.0,110.5 L165.22392895220662,110.5 L165.44504186791264,110.5 L165.66055812391033,110.5 L165.86776747823512,110.5 L166.06406415303067,110.5 L166.24697960371748,110.5 L166.4142135623731,110.5 L166.56366296493607,110.5 L166.69344839845658,110.5 L166.80193773580484,110.5 L166.88776666061673,110.5 L166.94985582436365,110.5 L166.9874244197865,110.5 L167.0,110.5 " />
			<path d="M163.0,110.5 L163.0125755802135,110.5 L163.05014417563635,110.5 L163.11223333938327,110.5 L163.19806226419516,110.5 L163.30655160154342,110.5 L163.43633703506393,110.5 L163.5857864376269,110.5 L163.75302039628252,110.5 L163.93593584696933,110.5 L164.13223252176488,110.5 L164.33944187608967,110.5 L164.55495813208736,110.5 L164.77607104779338,110.5 L164.99999999999997,110.5 " />
			<path d="M142.5,-4.499999999999995 L142.5,-8.040469482273465 L142.5,-11.4957446143401 L142.5,-14.829214359952426 L142.5,-18.005558295404118 L142.5,-20.99112085391382 L142.5,-23.754267929695185 L142.5,-26.265722063245867 L142.5,-28.49887265633478 L142.5,-30.43005792974472 L142.5,-32.03881563623255 L142.5,-33.30809987222925 L142.5,-34.22446169100952 L142.5,-34.778191603609145 L142.5,-34.96342245759402 " />
			<path d="M142.5,34.96342245759403 L142.5,34.77819160360915 L142.5,34.22446169100954 L142.5,33.30809987222927 L142.5,32.03881563623257 L142.5,30.43005792974474 L142.5,28.498872656334804 L142.5,26.265722063245885 L142.5,23.7542679296952 L142.5,20.99112085391383 L142.5,18.005558295404132 L142.5,14.829214359952429 L142.5,11.495744614340104 L142.5,8.040469482273469 L142.5,4.500000000000076 " />
			<path d="M142.5,34.96342245759403 L197.5,34.158716524662594 " />
			<path d="M197.5,34.158716524662594 L197.5,33.302286184200064 L197.5,30.775940156224916 L197.5,26.706359979682144 L197.5,21.29761139771053 L197.5,14.82091164917733 L197.5,7.601029503816912 L197.5,2.0916181427454925e-15 L197.5,-7.601029503816909 L197.5,-14.820911649177324 L197.5,-21.297611397710526 L197.5,-26.70635997968214 L197.5,-30.775940156224912 L197.5,-33.302286184200064 L197.5,-34.15871652466258 " />
			<path d="M140.0,-6.0 L142.5,-6.0 " />
			<path d="M140.0,6.0 L142.5,6.0 " />
			<path d="M200.0,1.8 L200.11896305178627,1.7960645289937942 L200.23740590841572,1.7842753247885554 L200.35481064941266,1.7646839385746569 L200.47066389371687,1.7373760384992276 L200.58445904456843,1.7024710350611423 L200.6956985047264,1.6601215589592926 L200.80389585233505,1.6105127936773742 L200.90857796792272,1.5538616657236328 L201.00928710323302,1.4904158960664362 L201.1055828828414,1.4204529169135085 L201.19704422980493,1.344278658571477 L201.28327120692452,1.2622262116904797 L201.3638867655686,1.1746543707435038 L201.43853839441087,1.0819460651094455 L201.50689966087256,0.9845066846203687 L201.5686716385291,0.8827623068949149 L201.62358421423932,0.7771578342092876 L201.67139726928147,0.6681550480527978 L201.7119017293313,0.5562305898749058 L201.7449204786908,0.44187387685343904 L201.7703091347703,0.32558496179779833 L201.78795667943655,0.20787234654525566 L201.79778594446694,0.0892507584118009 L201.79975394898645,-0.029761100579444408 L201.793852087412,-0.14864282185019728 L201.78010616708264,-0.2668745658813146 L201.75857629541048,-0.3839393353387433 L201.72935661704634,-0.49932523577131926 L201.6925749022091,-0.6125277139949564 L201.6483919879791,-0.7230517643753439 L201.5970010749985,-0.8304140933616372 L201.53862688265397,-0.9341452328061868 L201.47352466643605,-1.0337915928292984 L201.40197910177181,-1.1289174452523667 L201.32430303921163,-1.2191068289263343 L201.2408361364134,-1.3039653686239605 L201.15194337290598,-1.383121999542347 L201.05801345412644,-1.4562305898749062 L200.95945711171038,-1.5229714543576849 L200.85670530746674,-1.5830527521716813 L200.7502073488915,-1.6362117630884936 L200.64042892446054,-1.6822160362790306 L200.52785006729204,-1.7208644067618448 L200.41296305608415,-1.7519878750464113 L200.29627026250532,-1.775450346124901 L200.17828195445082,-1.791149224581021 L200.05951406477115,-1.799015863213667 L199.94048593522885,-1.7990158632136668 L199.82171804554918,-1.7911492245810199 L199.70372973749468,-1.7754503461248994 L199.58703694391585,-1.751987875046409 L199.47214993270796,-1.720864406761842 L199.35957107553946,-1.6822160362790273 L199.24979265110846,-1.6362117630884898 L199.14329469253326,-1.583052752171677 L199.0405428882896,-1.52297145435768 L198.94198654587353,-1.4562305898749008 L198.84805662709402,-1.3831219995423412 L198.75916386358656,-1.3039653686239543 L198.67569696078834,-1.2191068289263274 L198.59802089822819,-1.1289174452523596 L198.52647533356395,-1.033791592829291 L198.46137311734603,-0.934145232806179 L198.4029989250015,-0.8304140933616291 L198.3516080120209,-0.7230517643753355 L198.3074250977909,-0.6125277139949474 L198.27064338295366,-0.49932523577130966 L198.24142370458952,-0.3839393353387332 L198.21989383291736,-0.2668745658813039 L198.206147912588,-0.1486428218501862 L198.20024605101355,-0.029761100579432858 L198.20221405553306,0.08925075841181285 L198.21204332056345,0.2078723465452679 L198.2296908652297,0.3255849617978109 L198.2550795213092,0.44187387685345175 L198.28809827066874,0.5562305898749187 L198.32860273071853,0.6681550480528107 L198.37641578576068,0.7771578342093005 L198.43132836147092,0.8827623068949277 L198.49310033912747,0.9845066846203813 L198.56146160558916,1.0819460651094577 L198.6361132344314,1.1746543707435158 L198.7167287930755,1.2622262116904912 L198.8029557701951,1.344278658571488 L198.8944171171586,1.4204529169135192 L198.990712896767,1.490415896066446 L199.0914220320773,1.553861665723642 L199.19610414766495,1.6105127936773822 L199.3043014952736,1.6601215589592995 L199.4155409554316,1.7024710350611485 L199.52933610628315,1.7373760384992327 L199.64518935058734,1.7646839385746607 L199.7625940915843,1.7842753247885579 L199.88103694821376,1.7960645289937955 L200.00000000000003,1.8 " />
			<path d="M142.5,-6.538348415311011 L142.2815846903387,-6.617731582711111 L142.06065465831978,-6.689820803216259 L141.83745340912338,-6.7545366213605575 L141.6122269512251,-6.8118077085119975 L141.38522352524976,-6.86157094148961 L141.1566933303651,-6.903771472136725 L140.92688824851655,-6.938362787773636 L140.6960615668074,-6.965306762463062 L140.46446769833034,-6.984573699031869 L140.2323619017577,-6.996142361802791 L140.0,-7.0 " />
			<path d="M140.0,7.0 L140.2323619017577,6.996142361802792 L140.46446769833034,6.98457369903187 L140.6960615668074,6.96530676246306 L140.92688824851655,6.938362787773636 L141.1566933303651,6.903771472136725 L141.38522352524976,6.86157094148961 L141.6122269512251,6.8118077085119975 L141.83745340912338,6.7545366213605575 L142.06065465831978,6.689820803216258 L142.2815846903387,6.617731582711111 L142.5,6.53834841531101 " />
			<path d="M202.5,-3.122498999199199 L202.57605922103076,-3.060052128891586 L202.65110138117944,-2.995273230957884 L202.7250687194393,-2.9281394563152627 L202.7978985982779,-2.858629647160819 L202.8695236416108,-2.7867245883256597 L202.9398718761468,-2.712407261472066 L203.00886687610475,-2.635663102133726 L203.07642791130212,-2.556480259599048 L203.14247009861495,-2.474849859637545 L203.20690455680966,-2.3907662700692938 L203.26963856474632,-2.304227369177473 L203.33057572295357,-2.215234816963971 L203.3896161185751,-2.1237943292480708 L203.4466564936879,-2.029915954608211 L203.5015904169918,-1.9336143541668183 L203.55430781682313,-1.8349103302438696 L203.60468584037946,-1.7338511769384473 L203.65260209446652,-1.630490100721712 L203.69793459588286,-1.524886812256229 L203.7405601430278,-1.4171131775716148 L203.7803553750519,-1.307254058095709 L203.81719785234174,-1.1954081851047609 L203.85096714479323,-1.0816895621148441 L203.88154658349836,-0.9662275640390874 L203.90882541242266,-0.8491665886009839 L203.9327003700838,-0.7306624212419118 L203.95307638712686,-0.6108902786637663 L203.9698689732692,-0.4900413094060531 L203.98300690975546,-0.36831524096862417 L203.9924332157075,-0.24592047986512688 L203.99810611447427,-0.1230742116764525 L203.99999999998144,-2.5011041860922845e-06 L203.99810627279027,0.12306908472173962 L203.99243352919632,0.24591537248055562 L203.98300737753885,0.36831017489742246 L203.9698695985553,0.49003625039801285 L203.95307717266937,0.6108852018435028 L203.93270130727996,0.7306573734062825 L203.90882646404967,0.8491617474456672 L203.881547774269,0.96622277862571 L203.85096847073135,1.0816848320196457 L203.81719931598118,1.1954035201363609 L203.7803569600728,1.3072494758823083 L203.74056184957576,1.4171086717856958 L203.69793642395013,1.5248823783280754 L203.6526040411207,1.6304857410038889 L203.604687898434,1.7338468987404496 L203.55430997716095,1.8349061445270647 L203.50159242781442,1.9336107145810446 L203.44665828454285,2.0299129156022393 L203.38961774248176,2.1237917378872293 L203.33057722130405,2.215232563478593 L203.26963996661283,2.3042253787822458 L203.20690587899168,2.390764495615429 L203.14247134637375,2.474848275040739 L203.0764290797296,2.556478853986209 L203.00886795207362,2.635661874651444 L202.93987284078904,2.7124062166997946 L202.86952447327192,2.78672373223659 L202.79789927589366,2.858628983573413 L202.72506922628196,2.928138983778428 L202.65110170892106,2.995272940012755 L202.57605937406996,3.060051999652895 L202.5,3.122498999199194 " />
			<path d="M202.5,33.94347695270136 L202.5,33.754324523848815 L202.5,33.18897536789845 L202.5,32.25373038125796 L202.5,30.95901300175262 L202.5,29.31925303793459 L202.5,27.35272584682305 L202.5,25.081348652462047 L202.5,22.530436275354642 L202.5,19.728418995203317 L202.5,16.70652569141638 L202.5,13.498435792824363 L202.5,10.139903915676006 L202.5,6.668361373376628 L202.5,3.122498999199277 " />
			<path d="M202.5,33.94347695270136 L257.5,30.012912302485596 " />
			<path d="M257.5,30.012912302485596 L257.5,29.26042592955845 L257.5,27.040699619625034 L257.5,23.465039718635282 L257.5,18.712744744680293 L257.5,13.022114611609812 L257.5,6.6785012762980545 L257.5,1.8377608492164603e-15 L257.5,-6.678501276298051 L257.5,-13.022114611609808 L257.5,-18.71274474468029 L257.5,-23.46503971863528 L257.5,-27.04069961962503 L257.5,-29.26042592955845 L257.5,-30.01291230248558 " />
			<path d="M202.5,-3.122498999199198 L202.5,-6.668361373376631 L202.5,-10.13990391567601 L202.5,-13.498435792824367 L202.5,-16.706525691416385 L202.5,-19.728418995203317 L202.5,-22.53043627535464 L202.5,-25.081348652462033 L202.5,-27.352725846823034 L202.5,-29.319253037934576 L202.5,-30.959013001752602 L202.5,-32.253730381257945 L202.5,-33.188975367898436 L202.5,-33.75432452384881 L202.5,-33.94347695270135 " />
			<path d="M203.71576927225934,-1.4808979499914152 L203.76785010406348,-1.342872109077694 L203.81525261348696,-1.2016021100660097 L203.85773089040111,-1.057313799553657 L203.8950485641466,-0.9102727091910443 L203.9269851162517,-0.7607809969735241 L203.95334056022256,-0.6091783594346081 L203.97394020670603,-0.45585022651050655 L203.9886432514783,-0.30120594654668975 L203.99734634966552,-0.14567740228748305 L203.9999867879923,0.010280701176031422 L203.99654530605426,0.16620880806686164 L203.98704699400358,0.32164627180689376 L203.97156010499333,0.47614126064886697 L203.95019310831873,0.629264831225296 L203.92309150854842,0.7806105927241014 L203.8904339114984,0.9297976164548413 " />
			<path d="M203.82158751738638,1.1812997493173094 L203.77444516962998,1.324221876763521 " />
			<path d="M200.0,-6.0 L202.5,-6.0 " />
			<path d="M200.0,6.0 L202.5,6.0 " />
			<path d="M200.0,6.0 L199.78515822034646,5.996152350442349 L199.57059198598574,5.984614336571767 L199.35657648881008,5.965400756466244 L199.14338621436383,5.938536252500111 L198.93129458980204,5.904055279738968 L198.7205736332065,5.862002061749346 L198.51149360470905,5.812430533879776 L198.3043226598694,5.755404274086018 L198.09932650575232,5.690996421389165 L197.896768060145,5.619289582071192 L197.69690711435206,5.540375723728296 L197.5,5.454356057317858 " />
			<path d="M197.5,-5.454356057317858 L197.69690711435206,-5.540375723728296 L197.896768060145,-5.619289582071192 L198.09932650575232,-5.6909964213891655 L198.3043226598694,-5.755404274086019 L198.51149360470905,-5.812430533879777 L198.7205736332065,-5.8620020617493465 L198.93129458980204,-5.9040552797389685 L199.14338621436383,-5.9385362525001115 L199.35657648881008,-5.965400756466245 L199.57059198598574,-5.9846143365717674 L199.78515822034646,-5.996152350442349 L200.0,-6.0 " />
			<path d="M200.0,4.0 L200.16873280196714,3.9964395706103604 L200.3371652233207,3.9857646207701607 L200.50499741818913,3.967994154181973 L200.67193060923285,3.943159806091552 L200.8376676195321,3.911305786970303 L201.00191340162573,3.8724888038111565 L201.16437556275883,3.8267779591779396 L201.3247648854048,3.774254628187982 L201.4827958421346,3.715012313646932 L201.6381871039168,3.6491564795936915 L201.79066204094377,3.576804363551781 L201.93994921509199,3.4980847678213807 L202.0857828631403,3.4131378301835786 L202.22790336988544,3.3221147744250383 L202.36605773031286,3.2251776411271886 L202.5,3.1224989991992 " />
			<path d="M202.5,-3.1224989991991983 L202.36166558191616,-3.2283952173165917 L202.21885131740274,-3.3281674884627077 L202.07182811101873,-3.421626554490209 L201.92087485127033,-3.5085951327785327 L201.76627788158686,-3.588908252521519 L201.60833045715566,-3.6624135676607397 L201.44733218864593,-3.7289716458709323 L201.28358847387685,-3.788456233049351 L201.1174099185081,-3.8407544928073363 L200.94911174685151,-3.8857672205098015 L200.7790132039218,-3.9234090314566323 L200.60743694986024,-3.9536085228490307 L200.43470844788013,-3.9763084092335763 L200.26115534689538,-3.991465631167072 L200.08710686000276,-3.999051436896062 L199.91289313999724,-3.999051436896062 L199.73884465310465,-3.9914656311670735 L199.5652915521199,-3.9763084092335776 L199.39256305013978,-3.9536085228490334 L199.2209867960782,-3.9234090314566354 L199.0508882531485,-3.885767220509805 L198.8825900814919,-3.8407544928073407 L198.71641152612315,-3.788456233049356 L198.55266781135407,-3.7289716458709377 L198.39166954284434,-3.662413567660746 L198.23372211841317,-3.5889082525215255 L198.0791251487297,-3.50859513277854 L197.92817188898127,-3.4216265544902167 L197.7811486825973,-3.328167488462716 L197.63833441808387,-3.2283952173166006 L197.5,-3.122498999199208 " />
			<path d="M197.5,3.1224989991992005 L197.63394226968714,3.2251776411271886 L197.77209663011456,3.322114774425038 L197.9142171368597,3.413137830183578 L198.06005078490801,3.49808476782138 L198.20933795905623,3.5768043635517803 L198.36181289608317,3.6491564795936906 L198.5172041578654,3.7150123136469313 L198.67523511459518,3.774254628187981 L198.83562443724117,3.8267779591779387 L198.99808659837427,3.8724888038111556 L199.16233238046786,3.9113057869703027 L199.32806939076715,3.943159806091551 L199.49500258181087,3.9679941541819725 L199.6628347766793,3.9857646207701602 L199.83126719803286,3.9964395706103604 L200.0,4.0 " />
			<path d="M260.0,1.8 L260.11896305178624,1.7960645289937942 L260.2374059084157,1.7842753247885554 L260.3548106494127,1.7646839385746569 L260.4706638937169,1.7373760384992276 L260.5844590445684,1.7024710350611423 L260.6956985047264,1.6601215589592926 L260.8038958523351,1.6105127936773742 L260.9085779679227,1.5538616657236328 L261.009287103233,1.4904158960664362 L261.1055828828414,1.4204529169135085 L261.19704422980493,1.344278658571477 L261.2832712069245,1.2622262116904797 L261.3638867655686,1.1746543707435038 L261.43853839441084,1.0819460651094455 L261.50689966087253,0.9845066846203687 L261.5686716385291,0.8827623068949149 L261.6235842142393,0.7771578342092876 L261.6713972692815,0.6681550480527978 L261.71190172933126,0.5562305898749058 L261.7449204786908,0.44187387685343904 L261.7703091347703,0.32558496179779833 L261.78795667943655,0.20787234654525566 L261.79778594446697,0.0892507584118009 L261.79975394898645,-0.029761100579444408 L261.793852087412,-0.14864282185019728 L261.78010616708264,-0.2668745658813146 L261.7585762954105,-0.3839393353387433 L261.72935661704634,-0.49932523577131926 L261.6925749022091,-0.6125277139949564 L261.6483919879791,-0.7230517643753439 L261.5970010749985,-0.8304140933616372 L261.53862688265394,-0.9341452328061868 L261.47352466643605,-1.0337915928292984 L261.4019791017718,-1.1289174452523667 L261.32430303921166,-1.2191068289263343 L261.2408361364134,-1.3039653686239605 L261.151943372906,-1.383121999542347 L261.05801345412647,-1.4562305898749062 L260.9594571117104,-1.5229714543576849 L260.8567053074667,-1.5830527521716813 L260.75020734889154,-1.6362117630884936 L260.64042892446054,-1.6822160362790306 L260.52785006729204,-1.7208644067618448 L260.41296305608415,-1.7519878750464113 L260.29627026250535,-1.775450346124901 L260.1782819544508,-1.791149224581021 L260.0595140647712,-1.799015863213667 L259.9404859352288,-1.7990158632136668 L259.8217180455492,-1.7911492245810199 L259.70372973749465,-1.7754503461248994 L259.58703694391585,-1.751987875046409 L259.47214993270796,-1.720864406761842 L259.35957107553946,-1.6822160362790273 L259.24979265110846,-1.6362117630884898 L259.1432946925333,-1.583052752171677 L259.0405428882896,-1.52297145435768 L258.94198654587353,-1.4562305898749008 L258.848056627094,-1.3831219995423412 L258.7591638635866,-1.3039653686239543 L258.67569696078834,-1.2191068289263274 L258.5980208982282,-1.1289174452523596 L258.52647533356395,-1.033791592829291 L258.461373117346,-0.934145232806179 L258.4029989250015,-0.8304140933616291 L258.3516080120209,-0.7230517643753355 L258.3074250977909,-0.6125277139949474 L258.27064338295366,-0.49932523577130966 L258.2414237045895,-0.3839393353387332 L258.21989383291736,-0.2668745658813039 L258.206147912588,-0.1486428218501862 L258.20024605101355,-0.029761100579432858 L258.20221405553303,0.08925075841181285 L258.21204332056345,0.2078723465452679 L258.2296908652297,0.3255849617978109 L258.2550795213092,0.44187387685345175 L258.28809827066874,0.5562305898749187 L258.32860273071856,0.6681550480528107 L258.3764157857607,0.7771578342093005 L258.4313283614709,0.8827623068949277 L258.49310033912747,0.9845066846203813 L258.56146160558916,1.0819460651094577 L258.63611323443143,1.1746543707435158 L258.7167287930755,1.2622262116904912 L258.80295577019507,1.344278658571488 L258.89441711715864,1.4204529169135192 L258.990712896767,1.490415896066446 L259.0914220320773,1.553861665723642 L259.196104147665,1.6105127936773822 L259.3043014952736,1.6601215589592995 L259.4155409554316,1.7024710350611485 L259.52933610628315,1.7373760384992327 L259.6451893505874,1.7646839385746607 L259.7625940915843,1.7842753247885579 L259.88103694821376,1.7960645289937955 L260.0,1.8 " />
			<path d="M202.5,-6.538348415311011 L202.2815846903387,-6.617731582711111 L202.06065465831978,-6.689820803216258 L201.83745340912338,-6.754536621360557 L201.6122269512251,-6.8118077085119975 L201.38522352524976,-6.861570941489611 L201.1566933303651,-6.903771472136725 L200.92688824851655,-6.938362787773638 L200.6960615668074,-6.96530676246306 L200.46446769833034,-6.98457369903187 L200.2323619017577,-6.996142361802793 L200.0,-7.0 L199.7676380982423,-6.996142361802793 L199.53553230166966,-6.98457369903187 L199.3039384331926,-6.965306762463062 L199.07311175148345,-6.938362787773638 L198.8433066696349,-6.903771472136726 L198.61477647475024,-6.861570941489612 L198.38777304877493,-6.8118077085119975 L198.16254659087662,-6.7545366213605575 L197.93934534168022,-6.689820803216259 L197.7184153096613,-6.617731582711112 L197.5,-6.538348415311013 " />
			<path d="M197.5,6.538348415311011 L197.7184153096613,6.6177315827111105 L197.93934534168022,6.689820803216257 L198.16254659087662,6.754536621360557 L198.3877730487749,6.8118077085119975 L198.61477647475024,6.86157094148961 L198.8433066696349,6.903771472136725 L199.07311175148345,6.938362787773636 L199.3039384331926,6.965306762463061 L199.53553230166966,6.98457369903187 L199.7676380982423,6.996142361802792 L200.0,7.0 L200.2323619017577,6.996142361802791 L200.46446769833034,6.98457369903187 L200.6960615668074,6.965306762463062 L200.92688824851655,6.938362787773638 L201.1566933303651,6.903771472136727 L201.38522352524976,6.861570941489612 L201.61222695122507,6.811807708511998 L201.83745340912338,6.754536621360558 L202.06065465831978,6.689820803216259 L202.2815846903387,6.617731582711112 L202.5,6.538348415311013 " />
			<path d="M200.0,2.6 L200.14403584426663,2.5960072564548824 L200.2876293053121,2.584041288897234 L200.43033935862516,2.5641388488960764 L200.571727692941,2.536361063635137 L200.71136005644487,2.500793248170415 L200.8488075905075,2.457544643398534 L200.98364814685627,2.4067480805406776 L201.11546758413652,2.348559573172587 L201.24386103988115,2.283157838053643 L201.36843417398114,2.2107437462267194 L201.48880437983877,2.131539706074675 L201.6046019594829,2.045788980228329 L201.71547125903763,1.953754938423922 L201.82107176105671,1.8557202486047963 L201.92107913036872,1.7519860087516999 L202.0151862102212,1.6428708221081578 L202.1031039656636,1.5287098186412038 L202.18456237127245,1.4098536257429128 L202.25931124049146,1.2866672913340482 L202.3271209940398,1.1595291626773467 L202.38778336502838,1.0288297243439866 L202.44111203861863,0.8949703989022417 L202.48694322425877,0.7583623140118135 L202.52513615874068,0.6194250397105152 L202.55557353853155,0.4785852997715333 L202.57816188005313,0.33627566108912754 L202.59283180680177,0.19293320511811107 L202.59953826242716,0.048998185447575976 L202.59826064911596,-0.09508732436808859 L202.58900289085454,-0.23888078856791223 L202.57179342137715,-0.3819405683626534 L202.54668509683626,-0.5238272783582033 L202.51375503346316,-0.6641051360580446 L202.47310437071786,-0.8023433002999815 L202.42485796065517,-0.9381171945163483 L202.36916398446155,-1.0710098107535078 L202.30619349734002,-1.2006129904455574 L202.23613990314132,-1.32652867800854 L202.15921836035477,-1.4483701434049592 L202.07566512128295,-1.5657631699236696 L201.9857368064305,-1.6783472035270754 L201.88970961633484,-1.7857764602355968 L201.78787848326016,-1.8877209881482502 L201.68055616535966,-1.983867680837509 L201.56807228608886,-2.073921239005974 L201.45077232181916,-2.1576050774512665 L201.3290165407622,-2.234662174553554 L201.20317889646338,-2.3048558616766353 L201.07364587926264,-2.3679705500580734 L200.94081532925102,-2.4238123929558397 L200.8050952143678,-2.472209881017797 L200.66690237739203,-2.5130143690454383 L200.52666125567583,-2.546100532534007 L200.38480257755265,-2.57136675258681 L200.24176203942358,-2.588735428021519 L200.097978967585,-2.598153213709881 L199.95389496890763,-2.5995911844188067 L199.80995257451127,-2.593044923649629 L199.66659388060063,-2.578534537202681 L199.52425919063697,-2.556104591425518 L199.3833856630162,-2.525823976334461 L199.24440596840606,-2.487785694029857 L199.107746960867,-2.4421065730548874 L198.9738283668376,-2.38892690957526 L198.84306149601167,-2.328410036481814 L198.71584797806565,-2.2607418217394826 L198.592578529117,-2.18613009752336 L198.47363175170148,-2.104804021895181 L198.35937297195588,-2.017013374980724 L198.25015311757656,-1.9230277918098289 L198.14630764000088,-1.8231359341752171 L198.0481554841214,-1.7176446040536435 L197.95599810869714,-1.6068778013123455 L197.87011856047116,-1.4911757285949068 L197.79078060483712,-1.370893746442865 L197.718227915726,-1.2464012818622447 L197.65268332720018,-1.1180806936871768 L197.59434814905413,-0.9863260982254622 L197.54340154852318,-0.8515421587929238 L197.5,-0.7141428428542961 " />
			<path d="M197.5,0.7141428428542841 L197.54206719129624,0.8476829052762556 L197.59126187755493,0.9787648632229031 L197.64744140439706,1.1070086062243123 L197.71044286285573,1.232042254044794 L197.78008356177838,1.3535032350583769 L197.85616155759317,1.4710393376312676 L197.9384562399034,1.5843097314624786 L198.02672897121192,1.6929859559209592 L198.12072377892036,1.7967528725132473 L198.22016809759646,1.8953095787196874 L198.3247735593573,1.988370280549282 L198.43423683007632,2.0756651212829444 L198.54824048898922,2.15694096400197 L198.66645394914843,2.231962125632558 L198.78853441605656,2.3005110603778074 L198.91412788169933,2.3623889905553708 L199.04287015109526,2.417416483011476 L199.17438789838556,2.4654339694398244 L199.30829974940175,2.5063022090965625 L199.44421738757134,2.539902692569534 L199.5817466799555,2.566137985430979 L199.72048882015272,2.584932010777148 L199.86004148475456,2.596230269835534 L199.99999999999997,2.6 " />
			<path d="M200.0,1.5 L199.89176336629907,1.4960898472769246 L199.78409102828883,1.484379774833456 L199.67754433968346,1.46493083356513 L199.57267878558244,1.437844421246162 L199.47004108642835,1.4032617538884016 L199.3701663476596,1.3613631295064355 L199.27357526991858,1.3123669881272244 L199.18077143435946,1.256528772944947 L199.09223867720937,1.1941395985584657 L199.0084385672702,1.1255247332346037 L198.92980799951275,1.051041903110014 L198.85675691730856,0.9710794271727416 L198.7896661751749,0.8860541927468271 L198.72888555317587,0.7964094820348305 L198.67473193333097,0.7026126610496856 L198.62748764753897,0.6051527429847132 L198.58739900563023,0.5045378387252633 L198.55467501122118,0.4012925077938318 L198.52948627206624,0.29595502353960074 L198.51196411058808,0.18907456683043478 L198.50219987922333,0.08120836287812708 L198.50024448415303,-0.027081223875839805 L198.50610811990174,-0.13522962166809693 L198.5197602161877,-0.24267299482914612 L198.5411295973023,-0.3488511833614646 L198.57010485318722,-0.453210623354358 L198.6065349202748,-0.5552072330098704 L198.65022986906374,-0.65430924923335 L198.70096189432334,-0.7499999999999991 L198.75846650276466,-0.8417805980435729 L198.82244389198598,-0.929172541823584 L198.89256051350375,-1.0117202102107707 L198.96845081171986,-1.0889932378846963 L199.04971912975935,-1.1605887590592547 L199.13594177224215,-1.226133507838338 L199.22666921423448,-1.2852857642513842 L199.32142844486387,-1.3377371358230739 L199.41972543337874,-1.3832141653889003 L199.52104770479602,-1.4214797567742041 L199.6248670117084,-1.4523344109038454 L199.7306420883217,-1.4756172658980045 L199.83782147236408,-1.4912069357315398 L199.9458463801551,-1.4990221430845156 L200.0541536198449,-1.4990221430845154 L200.16217852763592,-1.491206935731539 L200.2693579116783,-1.4756172658980036 L200.3751329882916,-1.4523344109038439 L200.47895229520398,-1.4214797567742024 L200.58027456662126,-1.383214165388898 L200.67857155513613,-1.3377371358230714 L200.77333078576552,-1.2852857642513813 L200.86405822775785,-1.2261335078383349 L200.95028087024065,-1.160588759059251 L201.03154918828014,-1.0889932378846925 L201.10743948649625,-1.0117202102107665 L201.17755610801402,-0.9291725418235801 L201.24153349723534,-0.8417805980435694 L201.29903810567666,-0.749999999999996 L201.34977013093626,-0.6543092492333473 L201.3934650797252,-0.555207233009868 L201.42989514681278,-0.45321062335435575 L201.4588704026977,-0.3488511833614627 L201.4802397838123,-0.24267299482914448 L201.49389188009826,-0.13522962166809563 L201.49975551584697,-0.02708122387583884 L201.49780012077667,0.0812083628781277 L201.48803588941192,0.18907456683043505 L201.47051372793376,0.2959550235396007 L201.44532498877882,0.40129250779383147 L201.41260099436977,0.5045378387252626 L201.37251235246103,0.6051527429847121 L201.32526806666903,0.7026126610496843 L201.27111444682413,0.7964094820348291 L201.2103338248251,0.8860541927468253 L201.14324308269147,0.9710794271727399 L201.07019200048725,1.0510419031100118 L200.9915614327298,1.1255247332346014 L200.90776132279066,1.1941395985584635 L200.81922856564054,1.2565287729449452 L200.72642473008142,1.3123669881272224 L200.6298336523404,1.3613631295064337 L200.52995891357165,1.4032617538883998 L200.42732121441756,1.4378444212461605 L200.32245566031654,1.4649308335651288 L200.21590897171117,1.484379774833455 L200.10823663370093,1.4960898472769242 L200.0,1.5 " />
			<path d="M262.5,-3.122498999199198 L262.57599070016215,-3.0601098106135898 L262.6509726626665,-2.9953871537213446 L262.72488779790353,-2.9283078199660855 L262.7976731332154,-2.8588503048808196 L262.8692609498664,-2.7869950599349274 L262.9395789235417,-2.7127247472440494 L263.00855026837456,-2.6360244971428806 L263.0760938845005,-2.5568821686208656 L263.1421245091409,-2.4752886126207967 L263.2065528712134,-2.391237938200314 L263.2692858494711,-2.304727781556311 L263.33022663416955,-2.2157595779122405 L263.38927489226177,-2.124338836268325 L263.4463269361214,-2.0304754170146673 L263.5012758957937,-1.9341838124072692 L263.55401127475244,-1.835484632537937 L263.6044097829977,-1.7344249845930215 L263.6523485010236,-1.6310580785436586 L263.69770495723316,-1.525443579914941 L263.74035545234966,-1.4176533539870415 L263.78017612285595,-1.3077723094880098 L263.8170440253903,-1.1958992761566265 L263.85083822935417,-1.0821484158745647 L263.8814415689597,-0.9666493321190002 L263.90874281244936,-0.849546718034081 L263.93263824384223,-0.7309967289112662 L263.953032379382,-0.6111749844329912 L263.9698403463782,-0.4902731626906023 L263.98299060113374,-0.36849156273833134 L263.992425900855,-0.2460392051385144 L263.99810427555894,-0.12313393251488436 L263.9999999999814,-2.5101058627186035e-06 L263.998104434517,0.123128787200207 L263.99242621561604,0.24603407952899578 L263.98299107081573,0.36848647859628475 L263.9698409741981,0.4902680856288396 L263.9530331680859,0.611169889586695 L263.93263918473883,0.7309916635209265 L263.9087438680507,0.8495418609314215 L263.881442764386,0.9666445301214637 L263.8508395604666,1.0821436695583992 L263.817045494641,1.1958945954096445 L263.7801777138599,1.3077677120107265 L263.7403571652725,1.4176488333316786 L263.6977067920474,1.5254391315320937 L263.6523504547402,1.6310537048430356 L263.6044118483611,1.7344206929395554 L263.5540134426122,1.835480433916463 L263.50127791171354,1.934180164987107 L263.4463287317837,2.0304723709625003 L263.38927652072795,2.124336238551947 L263.3302281368441,2.215757318701087 L263.2692872554162,2.304725786029998 L263.20655419720316,2.391236159191503 L263.14212576040234,2.4752870240353095 L263.0760950560879,2.5568807595780028 L263.00855134712486,2.636023266778877 L262.9395798905576,2.7127237001216145 L262.86926178347375,2.786994202001808 L262.7976738123431,2.858849639920327 L262.72488830583126,2.928307346482529 L262.650972991089,2.9953868622033157 L262.57599085351603,3.060109681118029 L262.50000000000006,3.122498999199191 " />
			<path d="M262.5,29.557801872934192 L262.5,29.396127812532693 L262.5,28.912874267705096 L262.5,28.113327799551676 L262.5,27.006235061463087 L262.5,25.603707114943653 L262.5,23.921086940429813 L262.5,21.976781592471603 L262.5,19.792060835418628 L262.5,17.390824462439177 L262.5,14.79934084329039 L262.5,12.045959561001004 L262.5,9.16080128108294 L262.5,6.175428245953319 L262.5,3.122498999199265 " />
			<path d="M262.5,29.557801872934192 L317.5,23.475937073019065 " />
			<path d="M317.5,23.475937073019065 L317.5,22.88734631711035 L317.5,21.151088447626417 L317.5,18.354226684124676 L317.5,14.637007354104755 L317.5,10.185827356530016 L317.5,5.223887442987869 L317.5,1.437486559672874e-15 L317.5,-5.223887442987866 L317.5,-10.185827356530014 L317.5,-14.637007354104753 L317.5,-18.354226684124672 L317.5,-21.151088447626414 L317.5,-22.88734631711035 L317.5,-23.475937073019054 " />
			<path d="M262.5,-3.1224989991991956 L262.5,-6.175428245953309 L262.5,-9.160801281082932 L262.5,-12.045959561000995 L262.5,-14.799340843290382 L262.5,-17.390824462439166 L262.5,-19.79206083541862 L262.5,-21.976781592471596 L262.5,-23.921086940429802 L262.5,-25.603707114943646 L262.5,-27.00623506146308 L262.5,-28.11332779955167 L262.5,-28.912874267705092 L262.5,-29.396127812532693 L262.5,-29.557801872934185 " />
			<path d="M263.82629954986294,1.1659468633466863 L263.79483442584865,1.2646073154023414 L263.76106207812416,1.361767950033965 " />
			<path d="M260.0,-6.0 L262.5,-6.0 " />
			<path d="M260.0,6.0 L262.5,6.0 " />
			<path d="M260.0,6.0 L259.7851582203465,5.996152350442349 L259.57059198598574,5.984614336571767 L259.3565764888101,5.965400756466244 L259.14338621436383,5.938536252500111 L258.931294589802,5.904055279738968 L258.72057363320647,5.862002061749346 L258.5114936047091,5.812430533879775 L258.3043226598694,5.755404274086018 L258.0993265057523,5.690996421389165 L257.896768060145,5.6192895820711914 L257.69690711435203,5.540375723728295 L257.5,5.454356057317857 " />
			<path d="M257.5,-5.454356057317856 L257.69690711435203,-5.540375723728295 L257.896768060145,-5.6192895820711914 L258.0993265057523,-5.690996421389165 L258.3043226598694,-5.755404274086018 L258.5114936047091,-5.812430533879776 L258.72057363320647,-5.862002061749346 L258.931294589802,-5.904055279738968 L259.14338621436383,-5.9385362525001115 L259.3565764888101,-5.965400756466244 L259.57059198598574,-5.9846143365717674 L259.7851582203465,-5.996152350442349 L260.0,-6.0 " />
			<path d="M260.0,4.0 L260.1687328019671,3.9964395706103604 L260.3371652233207,3.9857646207701607 L260.50499741818913,3.967994154181973 L260.67193060923285,3.943159806091552 L260.8376676195321,3.911305786970303 L261.00191340162576,3.872488803811156 L261.16437556275883,3.826777959177939 L261.3247648854048,3.7742546281879816 L261.4827958421346,3.7150123136469317 L261.63818710391683,3.6491564795936906 L261.7906620409438,3.5768043635517803 L261.939949215092,3.4980847678213793 L262.0857828631403,3.4131378301835777 L262.22790336988544,3.3221147744250374 L262.3660577303129,3.2251776411271877 L262.5,3.122498999199199 " />
			<path d="M262.5,-3.1224989991991983 L262.36166558191616,-3.2283952173165917 L262.2188513174027,-3.3281674884627077 L262.07182811101876,-3.421626554490209 L261.9208748512703,-3.5085951327785327 L261.76627788158686,-3.588908252521519 L261.60833045715566,-3.6624135676607397 L261.44733218864593,-3.7289716458709323 L261.2835884738769,-3.788456233049351 L261.1174099185081,-3.8407544928073363 L260.9491117468515,-3.8857672205098015 L260.7790132039218,-3.9234090314566323 L260.60743694986024,-3.9536085228490307 L260.4347084478801,-3.9763084092335763 L260.26115534689535,-3.991465631167072 L260.0871068600028,-3.999051436896062 L259.91289313999727,-3.999051436896062 L259.73884465310465,-3.9914656311670735 L259.5652915521199,-3.9763084092335776 L259.39256305013976,-3.9536085228490334 L259.2209867960782,-3.9234090314566354 L259.0508882531485,-3.885767220509805 L258.8825900814919,-3.8407544928073407 L258.7164115261232,-3.788456233049356 L258.55266781135407,-3.7289716458709377 L258.39166954284434,-3.662413567660746 L258.23372211841314,-3.5889082525215255 L258.0791251487297,-3.50859513277854 L257.9281718889813,-3.4216265544902167 L257.7811486825973,-3.328167488462716 L257.63833441808384,-3.2283952173166006 L257.5,-3.122498999199208 " />
			<path d="M257.5,3.1224989991991983 L257.6339422696871,3.2251776411271864 L257.77209663011456,3.322114774425036 L257.9142171368597,3.413137830183576 L258.060050784908,3.498084767821378 L258.2093379590562,3.576804363551779 L258.36181289608317,3.6491564795936893 L258.51720415786536,3.71501231364693 L258.6752351145952,3.77425462818798 L258.83562443724117,3.826777959177938 L258.99808659837424,3.8724888038111547 L259.1623323804679,3.911305786970302 L259.32806939076715,3.9431598060915505 L259.49500258181087,3.967994154181972 L259.6628347766793,3.9857646207701602 L259.8312671980329,3.99643957061036 L260.0,4.0 " />
			<path d="M262.5,-6.538348415311011 L262.28158469033866,-6.617731582711111 L262.0606546583198,-6.689820803216258 L261.8374534091234,-6.754536621360557 L261.61222695122507,-6.8118077085119975 L261.3852235252498,-6.861570941489611 L261.1566933303651,-6.903771472136725 L260.92688824851655,-6.938362787773638 L260.6960615668074,-6.96530676246306 L260.46446769833034,-6.98457369903187 L260.2323619017577,-6.996142361802793 L260.0,-7.0 L259.7676380982423,-6.996142361802793 L259.53553230166966,-6.98457369903187 L259.3039384331926,-6.965306762463062 L259.07311175148345,-6.938362787773638 L258.8433066696349,-6.903771472136726 L258.6147764747502,-6.861570941489612 L258.38777304877493,-6.8118077085119975 L258.1625465908766,-6.7545366213605575 L257.9393453416802,-6.689820803216259 L257.71841530966134,-6.617731582711112 L257.5,-6.538348415311013 " />
			<path d="M257.5,6.538348415311011 L257.71841530966134,6.6177315827111105 L257.9393453416802,6.689820803216257 L258.1625465908766,6.754536621360557 L258.38777304877493,6.8118077085119975 L258.6147764747502,6.86157094148961 L258.8433066696349,6.903771472136725 L259.07311175148345,6.938362787773636 L259.3039384331926,6.965306762463061 L259.53553230166966,6.98457369903187 L259.7676380982423,6.996142361802792 L260.0,7.0 L260.2323619017577,6.996142361802791 L260.46446769833034,6.98457369903187 L260.6960615668074,6.965306762463062 L260.92688824851655,6.938362787773638 L261.1566933303651,6.903771472136727 L261.3852235252498,6.861570941489612 L261.61222695122507,6.811807708511998 L261.8374534091234,6.754536621360558 L262.0606546583198,6.689820803216259 L262.28158469033866,6.617731582711112 L262.5,6.538348415311013 " />
			<path d="M260.0,2.6 L260.1440358442666,2.5960072564548824 L260.2876293053121,2.584041288897234 L260.43033935862513,2.564138848896076 L260.571727692941,2.536361063635137 L260.7113600564449,2.500793248170415 L260.84880759050753,2.457544643398534 L260.98364814685624,2.4067480805406776 L261.1154675841365,2.348559573172587 L261.24386103988115,2.283157838053643 L261.36843417398114,2.210743746226719 L261.48880437983877,2.131539706074675 L261.60460195948286,2.045788980228329 L261.7154712590376,1.9537549384239217 L261.8210717610567,1.8557202486047952 L261.92107913036875,1.751986008751699 L262.0151862102212,1.6428708221081563 L262.1031039656636,1.528709818641202 L262.1845623712725,1.4098536257429113 L262.25931124049146,1.2866672913340464 L262.3271209940398,1.1595291626773445 L262.3877833650284,1.0288297243439843 L262.4411120386186,0.8949703989022396 L262.48694322425877,0.7583623140118113 L262.5251361587407,0.619425039710513 L262.5555735385315,0.478585299771531 L262.57816188005313,0.33627566108912527 L262.59283180680177,0.19293320511810877 L262.5995382624272,0.048998185447573665 L262.59826064911596,-0.09508732436809089 L262.58900289085454,-0.23888078856791453 L262.57179342137715,-0.38194056836265566 L262.54668509683626,-0.5238272783582055 L262.51375503346316,-0.6641051360580467 L262.47310437071786,-0.8023433002999837 L262.4248579606552,-0.9381171945163503 L262.3691639844616,-1.07100981075351 L262.30619349734,-1.2006129904455594 L262.23613990314135,-1.326528678008542 L262.15921836035477,-1.4483701434049612 L262.07566512128295,-1.5657631699236714 L261.9857368064305,-1.678347203527077 L261.88970961633487,-1.7857764602355986 L261.78787848326016,-1.8877209881482515 L261.6805561653597,-1.9838676808375104 L261.56807228608886,-2.0739212390059754 L261.45077232181916,-2.157605077451268 L261.3290165407622,-2.2346621745535553 L261.2031788964634,-2.3048558616766366 L261.07364587926264,-2.3679705500580743 L260.940815329251,-2.42381239295584 L260.80509521436784,-2.4722098810177977 L260.66690237739203,-2.5130143690454387 L260.52666125567583,-2.546100532534008 L260.38480257755265,-2.57136675258681 L260.2417620394236,-2.588735428021519 L260.097978967585,-2.598153213709881 L259.95389496890766,-2.599591184418806 L259.80995257451127,-2.593044923649629 L259.6665938806006,-2.578534537202681 L259.524259190637,-2.556104591425517 L259.3833856630162,-2.525823976334461 L259.24440596840606,-2.4877856940298564 L259.10774696086696,-2.4421065730548865 L258.9738283668376,-2.388926909575259 L258.84306149601167,-2.328410036481813 L258.71584797806565,-2.2607418217394812 L258.59257852911696,-2.186130097523359 L258.4736317517015,-2.104804021895179 L258.3593729719559,-2.017013374980723 L258.2501531175766,-1.923027791809827 L258.1463076400009,-1.8231359341752154 L258.04815548412137,-1.7176446040536417 L257.95599810869714,-1.6068778013123437 L257.87011856047116,-1.4911757285949048 L257.7907806048371,-1.370893746442863 L257.718227915726,-1.2464012818622427 L257.6526833272002,-1.1180806936871746 L257.5943481490541,-0.98632609822546 L257.5434015485232,-0.8515421587929215 L257.5,-0.7141428428542937 " />
			<path d="M257.5,0.7141428428542884 L257.5420671912962,0.8476829052762599 L257.5912618775549,0.9787648632229075 L257.64744140439706,1.1070086062243165 L257.71044286285576,1.232042254044798 L257.7800835617784,1.3535032350583809 L257.85616155759317,1.4710393376312711 L257.93845623990336,1.5843097314624823 L258.0267289712119,1.6929859559209628 L258.12072377892036,1.7967528725132504 L258.22016809759646,1.8953095787196903 L258.3247735593573,1.9883702805492849 L258.4342368300763,2.075665121282947 L258.5482404889892,2.156940964001972 L258.66645394914843,2.23196212563256 L258.78853441605656,2.300511060377809 L258.91412788169936,2.3623889905553725 L259.04287015109526,2.4174164830114777 L259.1743878983856,2.4654339694398257 L259.3082997494017,2.506302209096564 L259.4442173875713,2.539902692569535 L259.58174667995553,2.5661379854309794 L259.72048882015275,2.5849320107771483 L259.86004148475456,2.596230269835534 L260.0,2.6 " />
			<path d="M260.0,1.5 L259.8917633662991,1.4960898472769246 L259.7840910282888,1.484379774833456 L259.67754433968344,1.46493083356513 L259.57267878558247,1.437844421246162 L259.47004108642835,1.4032617538884016 L259.3701663476596,1.3613631295064355 L259.2735752699186,1.3123669881272244 L259.18077143435943,1.256528772944947 L259.09223867720937,1.1941395985584657 L259.0084385672702,1.1255247332346037 L258.9298079995128,1.051041903110014 L258.85675691730853,0.9710794271727416 L258.7896661751749,0.8860541927468271 L258.72888555317587,0.7964094820348305 L258.674731933331,0.7026126610496856 L258.627487647539,0.6051527429847132 L258.58739900563023,0.5045378387252633 L258.55467501122115,0.4012925077938318 L258.5294862720662,0.29595502353960074 L258.5119641105881,0.18907456683043478 L258.5021998792233,0.08120836287812708 L258.50024448415303,-0.027081223875839805 L258.50610811990174,-0.13522962166809693 L258.5197602161877,-0.24267299482914612 L258.5411295973023,-0.3488511833614646 L258.5701048531872,-0.453210623354358 L258.60653492027484,-0.5552072330098704 L258.65022986906376,-0.65430924923335 L258.7009618943233,-0.7499999999999991 L258.7584665027647,-0.8417805980435729 L258.822443891986,-0.929172541823584 L258.8925605135037,-1.0117202102107707 L258.9684508117199,-1.0889932378846963 L259.04971912975935,-1.1605887590592547 L259.1359417722421,-1.226133507838338 L259.22666921423445,-1.2852857642513842 L259.32142844486384,-1.3377371358230739 L259.41972543337874,-1.3832141653889003 L259.52104770479605,-1.4214797567742041 L259.62486701170843,-1.4523344109038454 L259.7306420883217,-1.4756172658980045 L259.8378214723641,-1.4912069357315398 L259.9458463801551,-1.4990221430845156 L260.0541536198449,-1.4990221430845154 L260.1621785276359,-1.491206935731539 L260.2693579116783,-1.4756172658980036 L260.3751329882916,-1.4523344109038439 L260.47895229520395,-1.4214797567742024 L260.58027456662126,-1.383214165388898 L260.67857155513616,-1.3377371358230714 L260.77333078576555,-1.2852857642513813 L260.8640582277579,-1.2261335078383349 L260.95028087024065,-1.160588759059251 L261.03154918828017,-1.0889932378846925 L261.1074394864963,-1.0117202102107665 L261.177556108014,-0.9291725418235801 L261.24153349723537,-0.8417805980435694 L261.2990381056767,-0.749999999999996 L261.34977013093624,-0.6543092492333473 L261.39346507972516,-0.555207233009868 L261.4298951468128,-0.45321062335435575 L261.4588704026977,-0.3488511833614627 L261.4802397838123,-0.24267299482914448 L261.49389188009826,-0.13522962166809563 L261.49975551584697,-0.02708122387583884 L261.4978001207767,0.0812083628781277 L261.4880358894119,0.18907456683043505 L261.4705137279338,0.2959550235396007 L261.44532498877885,0.40129250779383147 L261.41260099436977,0.5045378387252626 L261.372512352461,0.6051527429847121 L261.325268066669,0.7026126610496843 L261.27111444682413,0.7964094820348291 L261.2103338248251,0.8860541927468253 L261.14324308269147,0.9710794271727399 L261.0701920004872,1.0510419031100118 L260.9915614327298,1.1255247332346014 L260.90776132279063,1.1941395985584635 L260.81922856564057,1.2565287729449452 L260.7264247300814,1.3123669881272224 L260.6298336523404,1.3613631295064337 L260.52995891357165,1.4032617538883998 L260.42732121441753,1.4378444212461605 L260.32245566031656,1.4649308335651288 L260.2159089717112,1.484379774833455 L260.1082366337009,1.4960898472769242 L260.0,1.5 " />
			<path d="M322.5,22.90806836893468 L377.5,16.49682167899325 " />
			<path d="M377.5,16.49682167899325 L377.5,16.083211917136737 L377.5,14.863122752110634 L377.5,12.897734549298026 L377.5,10.285600079934362 L377.5,7.157702673637186 L377.5,3.6708881673203533 L377.5,1.0101389932641874e-15 L377.5,-3.6708881673203515 L377.5,-7.157702673637184 L377.5,-10.28560007993436 L377.5,-12.897734549298024 L377.5,-14.863122752110632 L377.5,-16.083211917136737 L377.5,-16.496821678993243 " />
			<path d="M322.5,22.90806836893468 L322.5,22.33371526704396 L322.5,20.639456424190296 L322.5,17.91024905336318 L322.5,14.282947008313405 L322.5,9.93943835987404 L322.5,5.09752476859045 L322.5,1.4027146301332292e-15 L322.5,-5.097524768590447 L322.5,-9.939438359874037 L322.5,-14.282947008313403 L322.5,-17.910249053363177 L322.5,-20.639456424190293 L322.5,-22.33371526704396 L322.5,-22.908068368934668 " />
			<path d="M320.0,-6.0 L322.5,-6.0 " />
			<path d="M320.0,6.0 L322.5,6.0 " />
			<path d="M320.0,6.0 L319.7851582203465,5.996152350442349 L319.57059198598574,5.984614336571767 L319.3565764888101,5.965400756466244 L319.14338621436383,5.938536252500111 L318.931294589802,5.904055279738967 L318.72057363320647,5.862002061749346 L318.5114936047091,5.812430533879775 L318.3043226598694,5.755404274086018 L318.0993265057523,5.690996421389164 L317.896768060145,5.6192895820711914 L317.69690711435203,5.540375723728295 L317.5,5.454356057317857 " />
			<path d="M317.5,-5.454356057317858 L317.6969071143521,-5.540375723728296 L317.896768060145,-5.619289582071192 L318.0993265057523,-5.6909964213891655 L318.3043226598694,-5.755404274086019 L318.5114936047091,-5.812430533879777 L318.7205736332065,-5.8620020617493465 L318.931294589802,-5.9040552797389685 L319.14338621436383,-5.9385362525001115 L319.3565764888101,-5.965400756466245 L319.57059198598574,-5.9846143365717674 L319.7851582203465,-5.996152350442349 L320.0,-6.0 " />
			<path d="M320.0,1.8 L320.11896305178624,1.7960645289937942 L320.2374059084157,1.7842753247885554 L320.3548106494127,1.7646839385746569 L320.4706638937169,1.7373760384992276 L320.5844590445684,1.7024710350611423 L320.6956985047264,1.6601215589592926 L320.8038958523351,1.6105127936773742 L320.9085779679227,1.5538616657236328 L321.009287103233,1.4904158960664362 L321.1055828828414,1.4204529169135085 L321.19704422980493,1.344278658571477 L321.2832712069245,1.2622262116904797 L321.3638867655686,1.1746543707435038 L321.43853839441084,1.0819460651094455 L321.50689966087253,0.9845066846203687 L321.5686716385291,0.8827623068949149 L321.6235842142393,0.7771578342092876 L321.6713972692815,0.6681550480527978 L321.71190172933126,0.5562305898749058 L321.7449204786908,0.44187387685343904 L321.7703091347703,0.32558496179779833 L321.78795667943655,0.20787234654525566 L321.79778594446697,0.0892507584118009 L321.79975394898645,-0.029761100579444408 L321.793852087412,-0.14864282185019728 L321.78010616708264,-0.2668745658813146 L321.7585762954105,-0.3839393353387433 L321.72935661704634,-0.49932523577131926 L321.6925749022091,-0.6125277139949564 L321.6483919879791,-0.7230517643753439 L321.5970010749985,-0.8304140933616372 L321.53862688265394,-0.9341452328061868 L321.47352466643605,-1.0337915928292984 L321.4019791017718,-1.1289174452523667 L321.32430303921166,-1.2191068289263343 L321.2408361364134,-1.3039653686239605 L321.151943372906,-1.383121999542347 L321.05801345412647,-1.4562305898749062 L320.9594571117104,-1.5229714543576849 L320.8567053074667,-1.5830527521716813 L320.75020734889154,-1.6362117630884936 L320.64042892446054,-1.6822160362790306 L320.52785006729204,-1.7208644067618448 L320.41296305608415,-1.7519878750464113 L320.29627026250535,-1.775450346124901 L320.1782819544508,-1.791149224581021 L320.0595140647712,-1.799015863213667 L319.9404859352288,-1.7990158632136668 L319.8217180455492,-1.7911492245810199 L319.70372973749465,-1.7754503461248994 L319.58703694391585,-1.751987875046409 L319.47214993270796,-1.720864406761842 L319.35957107553946,-1.6822160362790273 L319.24979265110846,-1.6362117630884898 L319.1432946925333,-1.583052752171677 L319.0405428882896,-1.52297145435768 L318.94198654587353,-1.4562305898749008 L318.848056627094,-1.3831219995423412 L318.7591638635866,-1.3039653686239543 L318.67569696078834,-1.2191068289263274 L318.5980208982282,-1.1289174452523596 L318.52647533356395,-1.033791592829291 L318.461373117346,-0.934145232806179 L318.4029989250015,-0.8304140933616291 L318.3516080120209,-0.7230517643753355 L318.3074250977909,-0.6125277139949474 L318.27064338295366,-0.49932523577130966 L318.2414237045895,-0.3839393353387332 L318.21989383291736,-0.2668745658813039 L318.206147912588,-0.1486428218501862 L318.20024605101355,-0.029761100579432858 L318.20221405553303,0.08925075841181285 L318.21204332056345,0.2078723465452679 L318.2296908652297,0.3255849617978109 L318.2550795213092,0.44187387685345175 L318.28809827066874,0.5562305898749187 L318.32860273071856,0.6681550480528107 L318.3764157857607,0.7771578342093005 L318.4313283614709,0.8827623068949277 L318.49310033912747,0.9845066846203813 L318.56146160558916,1.0819460651094577 L318.63611323443143,1.1746543707435158 L318.7167287930755,1.2622262116904912 L318.80295577019507,1.344278658571488 L318.89441711715864,1.4204529169135192 L318.990712896767,1.490415896066446 L319.0914220320773,1.553861665723642 L319.196104147665,1.6105127936773822 L319.3043014952736,1.6601215589592995 L319.4155409554316,1.7024710350611485 L319.52933610628315,1.7373760384992327 L319.6451893505874,1.7646839385746607 L319.7625940915843,1.7842753247885579 L319.88103694821376,1.7960645289937955 L320.0,1.8 " />
			<path d="M320.0,1.5 L319.8917633662991,1.4960898472769246 L319.7840910282888,1.484379774833456 L319.67754433968344,1.46493083356513 L319.57267878558247,1.437844421246162 L319.47004108642835,1.4032617538884016 L319.3701663476596,1.3613631295064355 L319.2735752699186,1.3123669881272244 L319.18077143435943,1.256528772944947 L319.09223867720937,1.1941395985584657 L319.0084385672702,1.1255247332346037 L318.9298079995128,1.051041903110014 L318.85675691730853,0.9710794271727416 L318.7896661751749,0.8860541927468271 L318.72888555317587,0.7964094820348305 L318.674731933331,0.7026126610496856 L318.627487647539,0.6051527429847132 L318.58739900563023,0.5045378387252633 L318.55467501122115,0.4012925077938318 L318.5294862720662,0.29595502353960074 L318.5119641105881,0.18907456683043478 L318.5021998792233,0.08120836287812708 L318.50024448415303,-0.027081223875839805 L318.50610811990174,-0.13522962166809693 L318.5197602161877,-0.24267299482914612 L318.5411295973023,-0.3488511833614646 L318.5701048531872,-0.453210623354358 L318.60653492027484,-0.5552072330098704 L318.65022986906376,-0.65430924923335 L318.7009618943233,-0.7499999999999991 L318.7584665027647,-0.8417805980435729 L318.822443891986,-0.929172541823584 L318.8925605135037,-1.0117202102107707 L318.9684508117199,-1.0889932378846963 L319.04971912975935,-1.1605887590592547 L319.1359417722421,-1.226133507838338 L319.22666921423445,-1.2852857642513842 L319.32142844486384,-1.3377371358230739 L319.41972543337874,-1.3832141653889003 L319.52104770479605,-1.4214797567742041 L319.62486701170843,-1.4523344109038454 L319.7306420883217,-1.4756172658980045 L319.8378214723641,-1.4912069357315398 L319.9458463801551,-1.4990221430845156 L320.0541536198449,-1.4990221430845154 L320.1621785276359,-1.491206935731539 L320.2693579116783,-1.4756172658980036 L320.3751329882916,-1.4523344109038439 L320.47895229520395,-1.4214797567742024 L320.58027456662126,-1.383214165388898 L320.67857155513616,-1.3377371358230714 L320.77333078576555,-1.2852857642513813 L320.8640582277579,-1.2261335078383349 L320.95028087024065,-1.160588759059251 L321.03154918828017,-1.0889932378846925 L321.1074394864963,-1.0117202102107665 L321.177556108014,-0.9291725418235801 L321.24153349723537,-0.8417805980435694 L321.2990381056767,-0.749999999999996 L321.34977013093624,-0.6543092492333473 L321.39346507972516,-0.555207233009868 L321.4298951468128,-0.45321062335435575 L321.4588704026977,-0.3488511833614627 L321.4802397838123,-0.24267299482914448 L321.49389188009826,-0.13522962166809563 L321.49975551584697,-0.02708122387583884 L321.4978001207767,0.0812083628781277 L321.4880358894119,0.18907456683043505 L321.4705137279338,0.2959550235396007 L321.44532498877885,0.40129250779383147 L321.41260099436977,0.5045378387252626 L321.372512352461,0.6051527429847121 L321.325268066669,0.7026126610496843 L321.27111444682413,0.7964094820348291 L321.2103338248251,0.8860541927468253 L321.14324308269147,0.9710794271727399 L321.0701920004872,1.0510419031100118 L320.9915614327298,1.1255247332346014 L320.90776132279063,1.1941395985584635 L320.81922856564057,1.2565287729449452 L320.7264247300814,1.3123669881272224 L320.6298336523404,1.3613631295064337 L320.52995891357165,1.4032617538883998 L320.42732121441753,1.4378444212461605 L320.32245566031656,1.4649308335651288 L320.2159089717112,1.484379774833455 L320.1082366337009,1.4960898472769242 L320.0,1.5 " />
			<path d="M382.5,15.986308702430422 L437.5,11.166269907989596 " />
			<path d="M437.5,11.166269907989596 L437.5,10.88630820825502 L437.5,10.060461557694236 L437.5,8.730141355801656 L437.5,6.962055412433573 L437.5,4.844862939674398 L437.5,2.4847288087341344 L437.5,6.837368350617435e-16 L437.5,-2.484728808734133 L437.5,-4.844862939674397 L437.5,-6.962055412433571 L437.5,-8.730141355801656 L437.5,-10.060461557694236 L437.5,-10.88630820825502 L437.5,-11.16626990798959 " />
			<path d="M382.5,15.986308702430422 L382.5,15.585498566754609 L382.5,14.403166453567328 L382.5,12.498599432012742 L382.5,9.967300445330892 L382.5,6.936199394498072 L382.5,3.557288342978775 L382.5,9.788790891306447e-16 L382.5,-3.557288342978773 L382.5,-6.93619939449807 L382.5,-9.96730044533089 L382.5,-12.49859943201274 L382.5,-14.403166453567326 L382.5,-15.585498566754609 L382.5,-15.986308702430415 " />
			<path d="M380.0,-6.0 L382.5,-6.0 " />
			<path d="M380.0,6.0 L382.5,6.0 " />
			<path d="M380.0,6.0 L379.7851582203465,5.996152350442349 L379.57059198598574,5.984614336571767 L379.3565764888101,5.965400756466244 L379.14338621436383,5.938536252500111 L378.931294589802,5.904055279738967 L378.72057363320647,5.862002061749346 L378.5114936047091,5.812430533879775 L378.3043226598694,5.755404274086018 L378.0993265057523,5.690996421389164 L377.896768060145,5.6192895820711914 L377.69690711435203,5.540375723728295 L377.5,5.454356057317857 " />
			<path d="M377.5,-5.454356057317858 L377.6969071143521,-5.540375723728296 L377.896768060145,-5.619289582071192 L378.0993265057523,-5.6909964213891655 L378.3043226598694,-5.755404274086019 L378.5114936047091,-5.812430533879777 L378.7205736332065,-5.8620020617493465 L378.931294589802,-5.9040552797389685 L379.14338621436383,-5.9385362525001115 L379.3565764888101,-5.965400756466245 L379.57059198598574,-5.9846143365717674 L379.7851582203465,-5.996152350442349 L380.0,-6.0 " />
			<path d="M380.0,1.8 L380.11896305178624,1.7960645289937942 L380.2374059084157,1.7842753247885554 L380.3548106494127,1.7646839385746569 L380.4706638937169,1.7373760384992276 L380.5844590445684,1.7024710350611423 L380.6956985047264,1.6601215589592926 L380.8038958523351,1.6105127936773742 L380.9085779679227,1.5538616657236328 L381.009287103233,1.4904158960664362 L381.1055828828414,1.4204529169135085 L381.19704422980493,1.344278658571477 L381.2832712069245,1.2622262116904797 L381.3638867655686,1.1746543707435038 L381.43853839441084,1.0819460651094455 L381.50689966087253,0.9845066846203687 L381.5686716385291,0.8827623068949149 L381.6235842142393,0.7771578342092876 L381.6713972692815,0.6681550480527978 L381.71190172933126,0.5562305898749058 L381.7449204786908,0.44187387685343904 L381.7703091347703,0.32558496179779833 L381.78795667943655,0.20787234654525566 L381.79778594446697,0.0892507584118009 L381.79975394898645,-0.029761100579444408 L381.793852087412,-0.14864282185019728 L381.78010616708264,-0.2668745658813146 L381.7585762954105,-0.3839393353387433 L381.72935661704634,-0.49932523577131926 L381.6925749022091,-0.6125277139949564 L381.6483919879791,-0.7230517643753439 L381.5970010749985,-0.8304140933616372 L381.53862688265394,-0.9341452328061868 L381.47352466643605,-1.0337915928292984 L381.4019791017718,-1.1289174452523667 L381.32430303921166,-1.2191068289263343 L381.2408361364134,-1.3039653686239605 L381.151943372906,-1.383121999542347 L381.05801345412647,-1.4562305898749062 L380.9594571117104,-1.5229714543576849 L380.8567053074667,-1.5830527521716813 L380.75020734889154,-1.6362117630884936 L380.64042892446054,-1.6822160362790306 L380.52785006729204,-1.7208644067618448 L380.41296305608415,-1.7519878750464113 L380.29627026250535,-1.775450346124901 L380.1782819544508,-1.791149224581021 L380.0595140647712,-1.799015863213667 L379.9404859352288,-1.7990158632136668 L379.8217180455492,-1.7911492245810199 L379.70372973749465,-1.7754503461248994 L379.58703694391585,-1.751987875046409 L379.47214993270796,-1.720864406761842 L379.35957107553946,-1.6822160362790273 L379.24979265110846,-1.6362117630884898 L379.1432946925333,-1.583052752171677 L379.0405428882896,-1.52297145435768 L378.94198654587353,-1.4562305898749008 L378.848056627094,-1.3831219995423412 L378.7591638635866,-1.3039653686239543 L378.67569696078834,-1.2191068289263274 L378.5980208982282,-1.1289174452523596 L378.52647533356395,-1.033791592829291 L378.461373117346,-0.934145232806179 L378.4029989250015,-0.8304140933616291 L378.3516080120209,-0.7230517643753355 L378.3074250977909,-0.6125277139949474 L378.27064338295366,-0.49932523577130966 L378.2414237045895,-0.3839393353387332 L378.21989383291736,-0.2668745658813039 L378.206147912588,-0.1486428218501862 L378.20024605101355,-0.029761100579432858 L378.20221405553303,0.08925075841181285 L378.21204332056345,0.2078723465452679 L378.2296908652297,0.3255849617978109 L378.2550795213092,0.44187387685345175 L378.28809827066874,0.5562305898749187 L378.32860273071856,0.6681550480528107 L378.3764157857607,0.7771578342093005 L378.4313283614709,0.8827623068949277 L378.49310033912747,0.9845066846203813 L378.56146160558916,1.0819460651094577 L378.63611323443143,1.1746543707435158 L378.7167287930755,1.2622262116904912 L378.80295577019507,1.344278658571488 L378.89441711715864,1.4204529169135192 L378.990712896767,1.490415896066446 L379.0914220320773,1.553861665723642 L379.196104147665,1.6105127936773822 L379.3043014952736,1.6601215589592995 L379.4155409554316,1.7024710350611485 L379.52933610628315,1.7373760384992327 L379.6451893505874,1.7646839385746607 L379.7625940915843,1.7842753247885579 L379.88103694821376,1.7960645289937955 L380.0,1.8 " />
			<path d="M440.0,-2.0 L456.0,-2.0 " />
			<path d="M456.0,-2.0 L456.0,-1.5 " />
			<path d="M456.0,1.5 L456.0,2.0 " />
			<path d="M440.0,-2.0 L440.0,-1.5 " />
			<path d="M440.0,1.5 L440.0,2.0 " />
			<path d="M440.0,2.0 L456.0,2.0 " />
			<path d="M446.0,1.6 L445.90527643317034,1.5971936156543673 L445.8108851547596,1.588784307358839 L445.71715728752537,1.5748015748023623 L445.6244216269919,1.5552944691371318 L445.5330034880415,1.5303314209081074 L445.44322356371697,1.5 " />
			<path d="M445.44322356371697,-1.5 L445.54125131408836,-1.5328240744372303 L445.6411941358841,-1.5592492911257212 L445.74263481234055,-1.5791653365563165 L445.84514987381795,-1.5924890701104986 L445.9483113655976,-1.5991648711354365 L446.0516886344024,-1.5991648711354365 L446.15485012618205,-1.5924890701104986 L446.25736518765945,-1.5791653365563165 L446.3588058641159,-1.5592492911257212 L446.45874868591164,-1.5328240744372303 L446.55677643628303,-1.5 " />
			<path d="M446.55677643628303,1.5 L446.4669965119585,1.5303314209081071 L446.3755783730081,1.5552944691371318 L446.28284271247463,1.574801574802362 L446.1891148452404,1.5887843073588388 L446.09472356682966,1.5971936156543673 L446.0,1.6 " />
			<path d="M452.0,1.6 L451.90527643317034,1.5971936156543673 L451.8108851547596,1.588784307358839 L451.71715728752537,1.5748015748023623 L451.6244216269919,1.5552944691371318 L451.5330034880415,1.5303314209081074 L451.44322356371697,1.5 " />
			<path d="M451.44322356371697,-1.5 L451.54125131408836,-1.5328240744372303 L451.6411941358841,-1.5592492911257212 L451.74263481234055,-1.5791653365563165 L451.84514987381795,-1.5924890701104986 L451.9483113655976,-1.5991648711354365 L452.0516886344024,-1.5991648711354365 L452.15485012618205,-1.5924890701104986 L452.25736518765945,-1.5791653365563165 L452.3588058641159,-1.5592492911257212 L452.45874868591164,-1.5328240744372303 L452.55677643628303,-1.5 " />
			<path d="M452.55677643628303,1.5 L452.4669965119585,1.5303314209081071 L452.3755783730081,1.5552944691371318 L452.28284271247463,1.574801574802362 L452.1891148452404,1.5887843073588388 L452.09472356682966,1.5971936156543673 L452.0,1.6 " />
			<path d="M380.0,1.5 L379.8917633662991,1.4960898472769246 L379.7840910282888,1.484379774833456 L379.67754433968344,1.46493083356513 L379.57267878558247,1.437844421246162 L379.47004108642835,1.4032617538884016 L379.3701663476596,1.3613631295064355 L379.2735752699186,1.3123669881272244 L379.18077143435943,1.256528772944947 L379.09223867720937,1.1941395985584657 L379.0084385672702,1.1255247332346037 L378.9298079995128,1.051041903110014 L378.85675691730853,0.9710794271727416 L378.7896661751749,0.8860541927468271 L378.72888555317587,0.7964094820348305 L378.674731933331,0.7026126610496856 L378.627487647539,0.6051527429847132 L378.58739900563023,0.5045378387252633 L378.55467501122115,0.4012925077938318 L378.5294862720662,0.29595502353960074 L378.5119641105881,0.18907456683043478 L378.5021998792233,0.08120836287812708 L378.50024448415303,-0.027081223875839805 L378.50610811990174,-0.13522962166809693 L378.5197602161877,-0.24267299482914612 L378.5411295973023,-0.3488511833614646 L378.5701048531872,-0.453210623354358 L378.60653492027484,-0.5552072330098704 L378.65022986906376,-0.65430924923335 L378.7009618943233,-0.7499999999999991 L378.7584665027647,-0.8417805980435729 L378.822443891986,-0.929172541823584 L378.8925605135037,-1.0117202102107707 L378.9684508117199,-1.0889932378846963 L379.04971912975935,-1.1605887590592547 L379.1359417722421,-1.226133507838338 L379.22666921423445,-1.2852857642513842 L379.32142844486384,-1.3377371358230739 L379.41972543337874,-1.3832141653889003 L379.52104770479605,-1.4214797567742041 L379.62486701170843,-1.4523344109038454 L379.7306420883217,-1.4756172658980045 L379.8378214723641,-1.4912069357315398 L379.9458463801551,-1.4990221430845156 L380.0541536198449,-1.4990221430845154 L380.1621785276359,-1.491206935731539 L380.2693579116783,-1.4756172658980036 L380.3751329882916,-1.4523344109038439 L380.47895229520395,-1.4214797567742024 L380.58027456662126,-1.383214165388898 L380.67857155513616,-1.3377371358230714 L380.77333078576555,-1.2852857642513813 L380.8640582277579,-1.2261335078383349 L380.95028087024065,-1.160588759059251 L381.03154918828017,-1.0889932378846925 L381.1074394864963,-1.0117202102107665 L381.177556108014,-0.9291725418235801 L381.24153349723537,-0.8417805980435694 L381.2990381056767,-0.749999999999996 L381.34977013093624,-0.6543092492333473 L381.39346507972516,-0.555207233009868 L381.4298951468128,-0.45321062335435575 L381.4588704026977,-0.3488511833614627 L381.4802397838123,-0.24267299482914448 L381.49389188009826,-0.13522962166809563 L381.49975551584697,-0.02708122387583884 L381.4978001207767,0.0812083628781277 L381.4880358894119,0.18907456683043505 L381.4705137279338,0.2959550235396007 L381.44532498877885,0.40129250779383147 L381.41260099436977,0.5045378387252626 L381.372512352461,0.6051527429847121 L381.325268066669,0.7026126610496843 L381.27111444682413,0.7964094820348291 L381.2103338248251,0.8860541927468253 L381.14324308269147,0.9710794271727399 L381.0701920004872,1.0510419031100118 L380.9915614327298,1.1255247332346014 L380.90776132279063,1.1941395985584635 L380.81922856564057,1.2565287729449452 L380.7264247300814,1.3123669881272224 L380.6298336523404,1.3613631295064337 L380.52995891357165,1.4032617538883998 L380.42732121441753,1.4378444212461605 L380.32245566031656,1.4649308335651288 L380.2159089717112,1.484379774833455 L380.1082366337009,1.4960898472769242 L380.0,1.5 " />
			<path d="M440.0,1.5 L440.0,-1.5 " />
			<path d="M440.0,1.5 L500.0,1.5 " />
			<path d="M500.0,-1.5 L500.0,1.5 " />
			<path d="M440.0,-1.5 L500.0,-1.5 " />
			<path d="M137.0,-34.98861629942128 L135.61499556395543,-34.990148245832714 L134.22999551535952,-34.993937797828366 L131.4600000117938,-35.00244610900202 L129.1725002064782,-35.00474840055378 L126.88499941815728,-35.003036848968534 L122.31000000201823,-34.997464455542506 L113.77000000004303,-35.00207192734755 L105.22999999995696,-34.997928063972836 L96.68999999811612,-35.002535209205405 L92.42000086098315,-34.99736200974444 L90.28500060989586,-34.99535121009347 L88.1499999673562,-34.99639311782184 L83.57498901265457,-35.009148590757796 L82.43123173330024,-35.01063671126885 L81.28747554411233,-35.00972621686668 L80.14372796608335,-35.00555592801909 L78.99999999235419,-34.997266335465035 L77.85569656220589,-34.98406385177621 L76.7114685795341,-34.96547827016074 L75.56734894329453,-34.9411129136965 L74.4233773270746,-34.91057174334099 L73.27960013077332,-34.87346047797794 L72.13607045705415,-34.829387464298 L70.99284812755334,-34.777962863981955 L69.84999929422536,-34.71880735472105 L69.04706681479703,-34.67247751803386 L68.24437208704158,-34.62225709353341 L67.44192967211166,-34.56818274341128 L66.63975446453837,-34.51028916872015 L65.83786147623111,-34.44860785022012 L65.03626545465532,-34.38317013790629 L64.23498063082155,-34.3140105116348 L63.43402077796686,-34.241167234972984 L62.63339964705646,-34.16467902410812 L61.833131730482336,-34.084577753357706 L61.03323319058225,-34.00087861853306 L60.23372267485081,-33.913570579116296 L59.43462162496188,-33.822611299919984 L58.63595357196894,-33.72793221260667 L57.837741795298214,-33.629460717154814 L57.040004608396615,-33.527167943065784 L56.4272290695248,-33.44593807458758 L55.814765158225505,-33.362385869439095 L55.202624897570274,-33.27649186411028 L54.59082093576975,-33.188234002208155 L53.97936625809271,-33.097589130526565 L53.36827389382622,-33.004534746802605 L52.757556681933224,-32.90905051677951 L52.14722713590621,-32.811119237750695 L51.53729742515779,-32.71072708531524 L50.92777946713129,-32.60786313962967 L50.31868510115673,-32.50251834699673 L49.71002629191975,-32.39468423218642 L49.101815287253345,-32.28435183644011 L48.49406463180445,-32.1715115156636 L47.886786914969775,-32.05615439287006 L47.27999410833749,-31.93827641848909 L46.353518295200054,-31.753177067753278 L45.42826012844836,-31.56211752737568 L44.50425047011099,-31.365105460221585 L43.58154075742534,-31.162080211550517 L42.66019756969625,-30.95293227508687 L41.740297724084584,-30.737522184706695 L40.82192424605159,-30.5156968607859 L39.90516342909735,-30.28730207615964 L38.99010306734479,-30.052190342547526 L38.07683181343329,-29.81022415420376 L37.1654394830987,-29.56127516145594 L36.25601799672941,-29.305220482700992 L35.34866251710077,-29.041937999331235 L34.443472211403325,-28.771303113968283 L33.54054993459238,-28.49319008828705 L33.08997196330927,-28.35129180759941 L32.63999999999992,-28.20748171261682 L32.16802482062908,-28.054293152729766 L31.696749786637568,-27.899042385914406 L31.226206513780493,-27.741651398599696 L30.75641529541113,-27.58207446917369 L30.287389016656896,-27.420288348715854 L29.819136432014453,-27.25628399884318 L29.351664852390076,-27.090059776177977 L28.884982287610676,-26.92161595294502 L28.419099090431573,-26.75095046320596 L27.95402914806706,-26.57805576423886 L27.48979066726922,-26.402916702570614 L27.026406598981023,-26.22550927417002 L26.56390474858984,-26.045800168309515 L26.102317617806726,-25.863746984603214 L25.641682024197575,-25.679299012729096 L25.182038544392235,-25.492398464343342 L24.72343082699699,-25.302982046694368 L24.265904821236482,-25.110982767444586 L23.80950796735113,-24.91633186020767 L23.354288394775498,-24.718960720309088 L22.90029417412368,-24.51880274027776 L22.447572669007744,-24.315794934576722 L21.996170033714684,-24.109879243080513 L21.546130902767963,-23.90100340280717 L21.097498318399687,-23.68912127741268 L20.650313941958856,-23.474192533955655 L20.20461859528175,-23.25618155644002 L19.76045317805055,-23.03505548564371 L19.317860007165564,-22.810781274741004 L18.876884624157196,-22.58332165022636 L18.437578116663676,-22.352629867647714 L18.000000000000423,-22.118643151657125 " />
			<path d="M140.0,4.500000000000003 L133.0,4.500000000000003 " />
			<path d="M140.0,-4.499999999999997 L133.0,-4.499999999999997 " />
			<path d="M140.0,-36.542939940024226 L133.0,-36.542939940024226 " />
			<path d="M140.0,36.54293994002422 L133.0,36.54293994002422 " />
			<path d="M140.0,-35.0 L137.0,-35.0 " />
			<path d="M144.0,-4.499999999999997 L140.0,-4.499999999999997 " />
			<path d="M142.5,27.54293994002422 L140.0,27.54293994002422 " />
			<path d="M144.0,-36.542939940024226 L140.0,-36.542939940024226 " />
			<path d="M140.75,108.5 L140.75,38.5 " />
			<path d="M140.75,-108.5 L140.75,-38.5 " />
			<path d="M163.0,110.5 L163.0,108.5 " />
			<path d="M163.0,38.5 L163.0,34.66348660986503 " />
			<path d="M163.0,-34.66348660986503 L163.0,-38.5 " />
			<path d="M163.0,-108.5 L163.0,-110.5 " />
			<path d="M167.0,110.5 L167.0,108.5 " />
			<path d="M167.0,38.5 L167.0,34.60496254201547 " />
			<path d="M167.0,-34.60496254201547 L167.0,-38.5 " />
			<path d="M167.0,-108.5 L167.0,-110.5 " />
			<path d="M197.49999999999955,-34.158716524662594 L142.49999999999955,-34.96342245759403 " />
			<path d="M257.50000000000006,-30.0129123024856 L202.5,-33.94347695270137 " />
			<path d="M317.5,-23.475937073019068 L262.5,-29.5578018729342 " />
			<path d="M377.5,-16.496821678993246 L322.5,-22.908068368934675 " />
			<path d="M437.5,-11.166269907989589 L382.5,-15.986308702430415 " />

       </g>
    </g>
    
</svg>
